<svg xmlns="http://www.w3.org/2000/svg" xmlns:xlink="http://www.w3.org/1999/xlink" width="99.875" height="119.867" viewBox="0 0 99.875 119.867">
  <defs>
    <clipPath id="clip-path">
      <rect id="Rectangle_252" data-name="Rectangle 252" width="76.913" height="104.36" fill="none"/>
    </clipPath>
  </defs>
  <g id="Accelerate" transform="translate(25.247) rotate(14)">
    <g id="Group_114" data-name="Group 114" clip-path="url(#clip-path)">
      <path id="Path_163" data-name="Path 163" d="M40.54,63.082c-1.987-1.057-3.835-2.057-5.708-3.01a1.031,1.031,0,0,0-.8.151c-1.619.943-3.221,1.915-4.938,2.945-.049-.521-.1-.926-.123-1.334a42.473,42.473,0,0,1,.518-11.289,11.981,11.981,0,0,1,1.906-4.7,7.966,7.966,0,0,1,5.086-3.087,2.908,2.908,0,0,0,2.491-2.435,71.575,71.575,0,0,1,6.8-15.837A47.169,47.169,0,0,1,71.6,3.036C74.921,1.869,78.375,1.075,81.769.114c.165-.047.339-.063.63-.114.835,2.171,1.726,4.319,2.491,6.509a46.991,46.991,0,0,1,2.58,22.313,51.1,51.1,0,0,1-6.35,17.946,87.369,87.369,0,0,1-8.709,12.579,1.086,1.086,0,0,0-.237,1.341,11.075,11.075,0,0,1,.4,1.133c1.427,3.693.617,6.915-2.034,9.761a44.063,44.063,0,0,1-10.748,7.94c-.1-1.932-.232-3.771-.279-5.612a1.136,1.136,0,0,0-.728-1.138c-1.735-.882-3.444-1.816-5.217-2.759-.137.61-.226,1.146-.379,1.665a10.867,10.867,0,0,1-2.9,4.316c-3.095,3.25-6.9,5.523-10.708,7.79-.791.47-1.594.919-2.527,1.456-.108-2.3-.312-4.461-.286-6.625.035-2.947.133-5.9.411-8.833a9.1,9.1,0,0,1,3.365-6.7M71.2,5.328a45.008,45.008,0,0,0-18.072,12.36A59.4,59.4,0,0,0,41.695,38.465c-1.223,3.674-2.135,7.449-3.258,11.158-.229.756-.024,1.029.6,1.361q12.681,6.709,25.339,13.463l.711.378c1.834-2.135,3.644-4.174,5.378-6.275A75.337,75.337,0,0,0,82.5,39.343a41.31,41.31,0,0,0,3.216-19.581C85.483,17.185,85,14.633,84.618,12A9.337,9.337,0,0,1,71.2,5.328M63.421,66.411,37.8,52.787c-.437,1.834-.869,3.6-1.26,5.381-.033.15.173.436.341.532.824.474,1.671.908,2.511,1.352.411.218,18.54,9.879,19.614,10.415.195.1.589.125.7,0,1.249-1.323,2.461-2.682,3.71-4.061M38.883,81.85c.976-.594,1.842-1.125,2.713-1.649a34.714,34.714,0,0,0,7.932-6.344,6.381,6.381,0,0,0,1.94-3.957c.007-.115.38-.908-1.556-1.844-2.239-1.171-4.456-2.384-6.7-3.534a1.365,1.365,0,0,0-1.076.011,4.97,4.97,0,0,0-2.479,3.332c-1.263,4.555-.946,9.2-.768,13.984m42.3-79.624L72.93,4.591a7.338,7.338,0,0,0,4.458,6.051,7.287,7.287,0,0,0,6.673-.426l-2.875-7.99M61.6,76.082a36.915,36.915,0,0,0,7.972-6.369,6.722,6.722,0,0,0,.807-7.831.454.454,0,0,0-.123.072q-4.3,4.8-8.591,9.617a.851.851,0,0,0-.2.534c.027,1.3.081,2.592.13,3.977M37.7,44.538c-3.707.723-5.588,2.5-6.184,6.062-.365,2.186-.468,4.417-.647,6.631-.065.8-.008,1.611-.007,2.554,1.109-.688,2.1-1.261,3.043-1.915a1.875,1.875,0,0,0,.684-.974c.472-1.736.87-3.491,1.307-5.237.588-2.346,1.187-4.689,1.8-7.122" transform="translate(-10.965)"/>
      <path id="Path_164" data-name="Path 164" d="M25.7,144.559a4.884,4.884,0,1,1,8.616,4.6,4.884,4.884,0,0,1-8.616-4.6m1.33.714a3.378,3.378,0,0,0,1.438,4.572,3.374,3.374,0,1,0,3.077-6,3.374,3.374,0,0,0-4.515,1.433" transform="translate(-9.556 -53.985)"/>
      <path id="Path_165" data-name="Path 165" d="M54.782,139.113q1.34-2.521,2.681-5.041A.851.851,0,0,1,58.7,133.6a.865.865,0,0,1,.354,1.227,4.356,4.356,0,0,1-.2.4q-.369.7-.739,1.394-2.116,3.979-4.233,7.959a5.2,5.2,0,0,1-.331.589.857.857,0,0,1-1.178.341.839.839,0,0,1-.336-1.226c.58-1.109,1.169-2.214,1.756-3.32q.493-.93.987-1.857h0" transform="translate(-19.738 -50.764)"/>
      <path id="Path_166" data-name="Path 166" d="M19.773,112.34q1.234-2.319,2.468-4.638c.369-.692.885-.944,1.366-.63.589.385.5.9.21,1.445q-2.493,4.667-4.974,9.341c-.394.738-.828.948-1.35.677s-.606-.765-.222-1.49q1.247-2.355,2.5-4.705" transform="translate(-6.477 -40.669)"/>
      <path id="Path_167" data-name="Path 167" d="M.361,118.723a2.974,2.974,0,0,1,4.063-1.21,3.009,3.009,0,0,1,1.225,4.068,3.054,3.054,0,0,1-4.084,1.22,3.018,3.018,0,0,1-1.2-4.078m4.17,2.232a1.748,1.748,0,0,0-.752-2.37,1.791,1.791,0,0,0-2.332.745,1.756,1.756,0,0,0,.776,2.365,1.717,1.717,0,0,0,2.308-.74" transform="translate(0 -44.551)"/>
      <path id="Path_168" data-name="Path 168" d="M73.286,139.391a2.684,2.684,0,1,1,3.638-1.04,2.688,2.688,0,0,1-3.638,1.04m2.6-1.535a1.548,1.548,0,0,0-.521-2.16,1.564,1.564,0,1,0,.521,2.16" transform="translate(-27.336 -51.096)"/>
      <path id="Path_169" data-name="Path 169" d="M60.641,152.346c.493-.927.988-1.852,1.477-2.781.282-.535.681-.842,1.272-.517s.542.824.257,1.354q-1.487,2.776-2.961,5.559c-.277.524-.636.855-1.258.571-.525-.24-.618-.737-.27-1.408.485-.931.984-1.855,1.477-2.782l.006,0" transform="translate(-22.419 -56.633)"/>
      <path id="Path_170" data-name="Path 170" d="M46.607,161.94c-.352.664-.695,1.333-1.06,1.989s-.858.855-1.339.553c-.568-.357-.527-.837-.241-1.367q1.07-1.985,2.115-3.982c.278-.534.655-.842,1.266-.6.521.2.641.765.313,1.417-.337.671-.7,1.329-1.054,1.992" transform="translate(-16.643 -60.258)"/>
      <path id="Path_171" data-name="Path 171" d="M10.984,133.338c.235-.442.461-.889.708-1.325a.823.823,0,0,1,1.162-.358.8.8,0,0,1,.4,1.145c-.458.918-.932,1.831-1.448,2.717a.8.8,0,0,1-1.168.312.829.829,0,0,1-.351-1.163c.21-.454.465-.887.7-1.329h0" transform="translate(-3.869 -50.027)"/>
      <path id="Path_172" data-name="Path 172" d="M83.556,43.29a9.136,9.136,0,1,1,12.368-3.675A9.117,9.117,0,0,1,83.556,43.29m7.879-14.5a7.374,7.374,0,1,0,2.993,9.919,7.375,7.375,0,0,0-2.993-9.919" transform="translate(-29.959 -9.933)"/>
    </g>
  </g>
</svg>
