<svg id="Invigorate" xmlns="http://www.w3.org/2000/svg" xmlns:xlink="http://www.w3.org/1999/xlink" width="102.573" height="102.521" viewBox="0 0 102.573 102.521">
  <defs>
    <clipPath id="clip-path">
      <rect id="Rectangle_251" data-name="Rectangle 251" width="102.573" height="102.521" fill="none"/>
    </clipPath>
  </defs>
  <g id="Group_112" data-name="Group 112" clip-path="url(#clip-path)">
    <path id="Path_145" data-name="Path 145" d="M83.4,88.679c-3.944,0-7.319.048-10.692-.038-.709-.018-1.762-.353-2.006-.857a2.479,2.479,0,0,1,.642-2.065Q79.1,77.125,87,68.667a3.814,3.814,0,0,1,2.516-.95q10.806-.107,21.614.007c.754.008,1.946.423,2.135.941.211.574-.318,1.647-.836,2.221-3.84,4.258-7.759,8.444-11.649,12.657-.54.585-1.053,1.193-1.96,2.223,3.363,0,6.264,0,9.165,0a47.633,47.633,0,0,1,4.847.071,2.231,2.231,0,0,1,1.548,1.2c.142.365-.461,1.105-.858,1.568a3.714,3.714,0,0,1-1.15.631L72.8,109.584c-.392.2-.789.561-1.18.557a3.07,3.07,0,0,1-1.92-.453,1.883,1.883,0,0,1,.048-1.745c1.011-1.617,2.185-3.132,3.292-4.689,3.352-4.714,6.7-9.429,10.358-14.574m22.582.507-.157-.508c-2.924,0-5.85.069-8.771-.038a13.7,13.7,0,0,1-2.995-.791,10.894,10.894,0,0,1,1.323-2.758c3.829-4.268,7.757-8.448,11.645-12.663.452-.49.862-1.018,1.555-1.842-6.477,0-12.426-.01-18.373.019a2.085,2.085,0,0,0-1.39.449c-4.4,4.723-8.748,9.487-13.323,14.472a17.819,17.819,0,0,0,1.8.224c2.72.018,5.443-.047,8.16.049.715.025,1.768.346,2.018.851s-.178,1.485-.528,2.138a24.959,24.959,0,0,1-1.773,2.522q-4.56,6.413-9.116,12.828l.276.29,29.645-15.241" transform="translate(-38.808 -37.782)"/>
    <path id="Path_146" data-name="Path 146" d="M112.753,6.447a41.265,41.265,0,0,1,.068-4.822c.071-.587.884-1.086,1.358-1.625.513.51,1.448,1,1.469,1.531.135,3.36.136,6.732,0,10.092-.022.534-.964,1.029-1.481,1.542-.472-.556-1.283-1.075-1.351-1.676a44.5,44.5,0,0,1-.062-5.042" transform="translate(-62.933)"/>
    <path id="Path_147" data-name="Path 147" d="M43.451,41.934c-.2.3-.4.894-.77,1.042A1.82,1.82,0,0,1,41.11,42.9c-2.581-2.481-5.111-5.018-7.558-7.629-.268-.286-.106-1.29.2-1.7a1.6,1.6,0,0,1,1.517-.307c2.7,2.562,5.323,5.211,7.949,7.852.133.134.122.411.231.822" transform="translate(-18.658 -18.52)"/>
    <path id="Path_148" data-name="Path 148" d="M185.2,32.825c.316.209.966.408,1.061.757a2.212,2.212,0,0,1-.172,1.782c-2.365,2.493-4.8,4.926-7.311,7.266a1.99,1.99,0,0,1-1.876-.062,1.735,1.735,0,0,1-.213-1.7c2.507-2.654,5.12-5.208,7.715-7.777.137-.136.4-.142.8-.269" transform="translate(-98.581 -18.328)"/>
    <path id="Path_149" data-name="Path 149" d="M115.73,208.767a32.644,32.644,0,0,1-.072,4.816c-.1.7-1.007,1.28-1.547,1.915-.458-.63-1.283-1.244-1.312-1.893-.139-3.139-.144-6.291,0-9.429.03-.633.916-1.226,1.407-1.838.507.607,1.355,1.164,1.452,1.831a32.207,32.207,0,0,1,.071,4.6" transform="translate(-62.923 -112.977)"/>
    <path id="Path_150" data-name="Path 150" d="M186.751,185.562c-.849.272-2.039.969-2.331.7-2.726-2.527-5.322-5.2-7.872-7.9a1.577,1.577,0,0,1,.278-1.512c.414-.308,1.415-.473,1.7-.2,2.614,2.444,5.133,4.991,7.66,7.528.188.189.223.529.564,1.395" transform="translate(-98.522 -98.553)"/>
    <path id="Path_151" data-name="Path 151" d="M44.04,177.708a12.262,12.262,0,0,1-1.082,1.54c-2.1,2.141-4.173,4.317-6.4,6.323-.529.477-1.606.347-2.43.5.1-.821-.1-1.915.352-2.417,2.108-2.33,4.367-4.527,6.647-6.693a2.293,2.293,0,0,1,1.737-.505c.416.071.73.75,1.175,1.256" transform="translate(-19.057 -98.511)"/>
    <path id="Path_152" data-name="Path 152" d="M8.771,73.374c3.574,1.352,6.872,2.543,10.1,3.892a1.865,1.865,0,0,1,.625,1.742,1.919,1.919,0,0,1-1.71.8Q12.908,78.18,8.14,76.225a1.94,1.94,0,0,1-.78-1.718c.119-.491.969-.8,1.411-1.133" transform="translate(-4.098 -40.969)"/>
    <path id="Path_153" data-name="Path 153" d="M157.859,205.118c-.435.5-.741,1.18-1.167,1.267-.522.106-1.487-.111-1.669-.48q-2.378-4.819-4.475-9.772c-.164-.387.29-1.276.711-1.591a1.577,1.577,0,0,1,1.521.213c1.733,3.373,3.356,6.8,5.078,10.363" transform="translate(-84.04 -108.563)"/>
    <path id="Path_154" data-name="Path 154" d="M73.236,21.185c-.435.522-.753,1.253-1.225,1.372a1.823,1.823,0,0,1-1.63-.6q-2.339-4.712-4.4-9.556a1.794,1.794,0,0,1,.608-1.625c.384-.247,1.52-.109,1.676.193,1.7,3.306,3.276,6.678,4.974,10.217" transform="translate(-36.815 -5.944)"/>
    <path id="Path_155" data-name="Path 155" d="M145,19.712c-.242-.749-.86-1.617-.665-2.225,1-3.129,2.15-6.217,3.406-9.253.221-.535,1.2-.757,1.825-1.123.294.712.992,1.552.814,2.115-.97,3.062-2.149,6.058-3.275,9.07-.25.669-.58,1.307-.874,1.96L145,19.712" transform="translate(-80.57 -3.97)"/>
    <path id="Path_156" data-name="Path 156" d="M197.553,142.918c3.688,1.35,6.337,2.2,8.874,3.3,1.205.524,3.727.379,2.846,2.654-.793,2.047-2.537.474-3.769.082-2.5-.8-4.968-1.732-7.386-2.759a2.254,2.254,0,0,1-1.063-1.636,3.794,3.794,0,0,1,.5-1.641" transform="translate(-110.025 -79.799)"/>
    <path id="Path_157" data-name="Path 157" d="M11.142,158.171a5.188,5.188,0,0,1-.557-1.715,2.091,2.091,0,0,1,.723-1.617q4.611-2.289,9.35-4.312a1.808,1.808,0,0,1,1.676.457c.282.393.231,1.59-.039,1.73-3.363,1.741-6.792,3.353-11.154,5.457" transform="translate(-5.91 -84.012)"/>
    <path id="Path_158" data-name="Path 158" d="M80.627,198.266c-.3.86-.5,1.483-.724,2.1-.951,2.606-1.829,5.245-2.924,7.789-.258.6-1.256.881-1.913,1.308-.265-.785-.928-1.7-.728-2.334.938-2.991,2.054-5.933,3.259-8.828a2.544,2.544,0,0,1,1.771-1.143c.364-.057.863.74,1.258,1.112" transform="translate(-41.486 -110.081)"/>
    <path id="Path_159" data-name="Path 159" d="M195.172,73.581a4.839,4.839,0,0,1-.659-1.673,2.051,2.051,0,0,1,.718-1.619q4.616-2.272,9.361-4.277a1.829,1.829,0,0,1,1.689.465c.274.375.189,1.564-.093,1.71-3.36,1.741-6.786,3.353-11.016,5.395" transform="translate(-108.607 -36.823)"/>
    <path id="Path_160" data-name="Path 160" d="M6.487,115.663a41.083,41.083,0,0,1-4.839-.064c-.594-.071-1.1-.875-1.648-1.345.536-.484,1.056-1.366,1.611-1.388,3.3-.132,6.608-.129,9.908,0,.56.022,1.088.875,1.631,1.344-.532.484-1.023,1.321-1.6,1.387a45.218,45.218,0,0,1-5.059.067" transform="translate(0 -62.964)"/>
    <path id="Path_161" data-name="Path 161" d="M209.227,112.784a40.272,40.272,0,0,1,4.836.064c.586.071,1.081.892,1.617,1.371-.539.477-1.063,1.343-1.62,1.366-3.3.131-6.6.131-9.9,0-.546-.022-1.059-.9-1.587-1.376.531-.475,1.024-1.3,1.6-1.36a46.356,46.356,0,0,1,5.056-.067" transform="translate(-113.106 -62.95)"/>
    <path id="Path_162" data-name="Path 162" d="M113.548,92.874,83.9,108.115l-.276-.29Q88.184,101.411,92.743,95a24.964,24.964,0,0,0,1.773-2.522c.351-.653.78-1.626.528-2.138s-1.3-.825-2.018-.851c-2.717-.1-5.44-.031-8.16-.049a17.819,17.819,0,0,1-1.8-.224c4.575-4.985,8.926-9.749,13.323-14.472a2.085,2.085,0,0,1,1.39-.449c5.948-.029,11.9-.019,18.373-.019-.693.824-1.1,1.352-1.555,1.842-3.888,4.215-7.816,8.395-11.645,12.663a10.894,10.894,0,0,0-1.323,2.758,13.7,13.7,0,0,0,2.995.791c2.92.108,5.846.038,8.771.038l.157.508" transform="translate(-46.379 -41.47)" fill="#fff"/>
  </g>
</svg>
