<svg xmlns="http://www.w3.org/2000/svg" xmlns:xlink="http://www.w3.org/1999/xlink" width="76" height="76" viewBox="0 0 76 76">
  <defs>
    <clipPath id="clip-path">
      <rect id="Rectangle_253" data-name="Rectangle 253" width="76" height="76" transform="translate(0.023 0.023)" fill="none"/>
    </clipPath>
  </defs>
  <g id="Transform" transform="translate(-0.023 -0.023)">
    <g id="Group_116" data-name="Group 116" clip-path="url(#clip-path)">
      <path id="Path_173" data-name="Path 173" d="M76.046,63.9V76.046H0V0H1.291A10.875,10.875,0,0,0,.43,2.879C.355,9.684.43,16.491.367,23.3c-.019,1.992.7,2.849,2.753,2.83q10.327-.1,20.655,0c2.051.019,2.777-.836,2.759-2.828-.062-6.8.012-13.611-.064-20.416A10.865,10.865,0,0,0,25.609,0H76.046V58.953c-.281-.671-.59-1.332-.838-2.015a13.966,13.966,0,1,0-.029,9.483c.3-.833.578-1.678.867-2.518m-37.62,4.164c.309.861.383,2.381,1.127,2.856,1.421.908,2.183-.57,2.935-1.6,3.548-4.876,3.65-4.1-1.536-7.562a3.962,3.962,0,0,0-2.976-.741c-.6.222-.723,1.75-1.134,2.912-.637-.059-1.61-.081-2.557-.248C19.106,61.01,9.952,47.9,12.543,32.555c.23-1.362.631-2.9-1.281-3.226-1.739-.3-2.009,1.207-2.268,2.47A29.631,29.631,0,0,0,27.43,65.51c3.584,1.338,7.506,1.771,11,2.557m1.091-56.374a20.213,20.213,0,0,1,2.229.137A26.226,26.226,0,0,1,64.15,41.7c-.186,1.329-.208,2.535,1.353,2.8,1.587.268,2-.951,2.188-2.233.055-.37.14-.736.182-1.107A29.675,29.675,0,0,0,47.143,9.449a78.553,78.553,0,0,0-9.064-1.733l-1.349-3c-.893.473-2.081.724-2.631,1.454-3.773,5.013-3.873,4.2,1.379,7.672a3.524,3.524,0,0,0,2.753.62c.633-.28.8-1.62,1.286-2.765" fill="#fff"/>
      <path id="Path_174" data-name="Path 174" d="M26.051,0a10.882,10.882,0,0,1,.86,2.881c.075,6.8,0,13.611.064,20.416.018,1.993-.707,2.847-2.759,2.828q-10.327-.094-20.655,0C1.507,26.144.79,25.287.809,23.3.872,16.491.8,9.684.873,2.879A10.875,10.875,0,0,1,1.733,0ZM4.536,22.343H23.17V3.719H4.536Z" transform="translate(-0.442)"/>
      <path id="Path_175" data-name="Path 175" d="M134.242,121.544c-.288.839-.562,1.684-.867,2.518a13.942,13.942,0,1,1,.029-9.483c.249.683.557,1.343.838,2.015Zm-13.926-12.6a10.347,10.347,0,1,0,10.32,10.5,10.361,10.361,0,0,0-10.32-10.5" transform="translate(-58.196 -57.64)"/>
      <path id="Path_176" data-name="Path 176" d="M48.563,103.486c-3.49-.786-7.412-1.22-11-2.558A29.63,29.63,0,0,1,19.131,67.217c.259-1.263.53-2.767,2.268-2.47,1.913.326,1.511,1.864,1.281,3.226C20.089,83.317,29.243,96.428,44.421,99.1c.947.167,1.92.188,2.557.248.412-1.162.532-2.691,1.135-2.912a3.966,3.966,0,0,1,2.976.741c5.186,3.458,5.084,2.687,1.536,7.562-.752,1.033-1.514,2.511-2.935,1.6-.743-.475-.818-1.995-1.127-2.855" transform="translate(-10.138 -35.418)"/>
      <path id="Path_177" data-name="Path 177" d="M77.469,17.392c-.488,1.145-.653,2.485-1.286,2.765a3.524,3.524,0,0,1-2.753-.62c-5.253-3.476-5.152-2.659-1.379-7.672.55-.731,1.738-.981,2.631-1.454l1.349,3a78.553,78.553,0,0,1,9.064,1.733,29.675,29.675,0,0,1,20.73,31.713c-.042.371-.127.737-.182,1.107-.19,1.281-.6,2.5-2.188,2.233-1.56-.263-1.539-1.469-1.353-2.8A26.226,26.226,0,0,0,79.7,17.529a20.212,20.212,0,0,0-2.229-.137" transform="translate(-37.952 -5.698)"/>
    </g>
  </g>
</svg>
