<svg xmlns="http://www.w3.org/2000/svg" xmlns:xlink="http://www.w3.org/1999/xlink" width="57.165" height="72.556" viewBox="0 0 57.165 72.556">
  <defs>
    <linearGradient id="linear-gradient" x1="-1.952" y1="-0.459" x2="2.832" y2="1" gradientUnits="objectBoundingBox">
      <stop offset="0" stop-color="#29efad"/>
      <stop offset="1" stop-color="#54d1fc"/>
    </linearGradient>
  </defs>
  <g id="Design" transform="translate(-8 -1)">
    <path id="Path_63" data-name="Path 63" d="M35.746,12.15a1.155,1.155,0,0,0-.989-.55h0a1.155,1.155,0,0,0-.989.55C25.742,27.98,26.4,26.771,26.4,26.991V68.656A3.9,3.9,0,0,0,30.249,72.5h9.015a3.9,3.9,0,0,0,3.848-3.848c0-44.523.11-41.885-.22-42.324Zm-.989,2.968,2.419,4.727a7.3,7.3,0,0,1-4.837,0Zm-3.408,6.706a10.35,10.35,0,0,0,6.816,0l2.089,4.068H29.259ZM28.6,28.09h5.057V59.861H28.6ZM40.912,68.656A1.691,1.691,0,0,1,39.263,70.3H30.249A1.691,1.691,0,0,1,28.6,68.656v-6.6H40.912Zm0-8.795H35.855V28.09h5.057Z" transform="translate(1.827 1.053)" fill="url(#linear-gradient)"/>
    <path id="Path_64" data-name="Path 64" d="M60.658,10.015h0a4.458,4.458,0,0,0,4.507-4.507,4.46,4.46,0,0,0-8.795-1.1H41.09V2.1a1.039,1.039,0,0,0-1.1-1.1H33.285a1.039,1.039,0,0,0-1.1,1.1V4.408H16.795A4.49,4.49,0,0,0,12.4,1,4.435,4.435,0,0,0,8,5.507a4.506,4.506,0,0,0,4.4,4.507h0a4.365,4.365,0,0,0,4.287-3.408h9.564A25.369,25.369,0,0,0,11.628,25.185H9.1a1.039,1.039,0,0,0-1.1,1.1v6.706a1.039,1.039,0,0,0,1.1,1.1h6.816a1.039,1.039,0,0,0,1.1-1.1V26.285a1.039,1.039,0,0,0-1.1-1.1H14.046A23.155,23.155,0,0,1,32.185,7.046V8.915a1.039,1.039,0,0,0,1.1,1.1h6.706a1.039,1.039,0,0,0,1.1-1.1V7.046A23.155,23.155,0,0,1,59.229,25.185H57.36a1.039,1.039,0,0,0-1.1,1.1v6.706a1.039,1.039,0,0,0,1.1,1.1h6.706a1.039,1.039,0,0,0,1.1-1.1V26.285a1.039,1.039,0,0,0-1.1-1.1H61.318A25.318,25.318,0,0,0,46.7,6.607h9.674A4.584,4.584,0,0,0,60.658,10.015Zm.11-6.816a2.231,2.231,0,0,1,2.2,2.309,2.322,2.322,0,0,1-2.309,2.309h0A2.322,2.322,0,0,1,58.35,5.507,2.418,2.418,0,0,1,60.768,3.2ZM12.507,7.816h0A2.254,2.254,0,0,1,10.2,5.507,2.254,2.254,0,0,1,12.507,3.2a2.322,2.322,0,0,1,2.309,2.309A2.482,2.482,0,0,1,12.507,7.816Zm2.2,19.568v4.507H10.2V27.384ZM38.891,7.816H34.384V3.2h4.507ZM62.967,27.384v4.507H58.35V27.384Z" fill="url(#linear-gradient)"/>
  </g>
</svg>
