<svg xmlns="http://www.w3.org/2000/svg" xmlns:xlink="http://www.w3.org/1999/xlink" width="98.369" height="68.574" viewBox="0 0 98.369 68.574">
  <defs>
    <linearGradient id="linear-gradient" x1="-0.216" y1="-0.415" x2="1" y2="1.338" gradientUnits="objectBoundingBox">
      <stop offset="0" stop-color="#29efad"/>
      <stop offset="1" stop-color="#54d1fc"/>
    </linearGradient>
  </defs>
  <g id="Development" transform="translate(0 -9.683)">
    <path id="Path_65" data-name="Path 65" d="M88.782,50.05a.753.753,0,0,1-.753-.753V17.044a2.453,2.453,0,0,0-2.443-2.459H26.627a.753.753,0,1,1,0-1.506H85.586a3.961,3.961,0,0,1,3.949,3.964V49.3a.754.754,0,0,1-.753.753ZM3.593,65.2a.753.753,0,0,1-.753-.753v-47.4A3.961,3.961,0,0,1,6.789,13.08H16.47a.753.753,0,0,1,0,1.506H6.789a2.463,2.463,0,0,0-2.443,2.459v47.4a.754.754,0,0,1-.753.753Zm85.189,0a.753.753,0,0,1-.753-.753V59.055a.753.753,0,0,1,1.506,0v5.393a.754.754,0,0,1-.753.753Z" transform="translate(1.524 1.823)" fill="url(#linear-gradient)"/>
    <path id="Path_66" data-name="Path 66" d="M90.167,78.257H5.255A5.273,5.273,0,0,1,0,73V66.256A.754.754,0,0,1,.753,65.5H32.222a.729.729,0,0,1,.707.507l1.2,3.4H61.279l1.2-3.4a.757.757,0,0,1,.707-.507H94.654a.754.754,0,0,1,.753.753v6.73a5.254,5.254,0,0,1-5.24,5.271ZM1.506,67.024V73a3.754,3.754,0,0,0,3.749,3.749h84.9A3.754,3.754,0,0,0,93.9,73V67.024H63.738l-1.2,3.4a.757.757,0,0,1-.707.507H33.59a.729.729,0,0,1-.707-.507l-1.2-3.4ZM24.447,25.782a.784.784,0,0,1-.476-.169l-4.287-3.534-5.516-.661a.759.759,0,0,1-.615-.476.738.738,0,0,1,.123-.768l3.534-4.287.661-5.532a.759.759,0,0,1,.476-.615.738.738,0,0,1,.768.123L23.4,13.4l5.532.661a.759.759,0,0,1,.615.476.738.738,0,0,1-.123.768L25.892,19.59l-.661,5.516a.759.759,0,0,1-.476.615.732.732,0,0,1-.307.061ZM15.7,20.066l4.364.522a.725.725,0,0,1,.384.169l3.4,2.8.522-4.364a.725.725,0,0,1,.169-.384l2.8-3.4-4.364-.522a.725.725,0,0,1-.384-.169l-3.4-2.8-.522,4.364a.725.725,0,0,1-.169.384ZM93.21,64.059a.784.784,0,0,1-.476-.169l-4.287-3.534-5.516-.661a.759.759,0,0,1-.615-.476.738.738,0,0,1,.123-.768l3.534-4.287.661-5.532a.759.759,0,0,1,.476-.615.738.738,0,0,1,.768.123l4.287,3.534,5.532.661a.759.759,0,0,1,.615.476.738.738,0,0,1-.123.768l-3.534,4.287L93.994,63.4a.759.759,0,0,1-.476.615A2.492,2.492,0,0,1,93.21,64.059Zm-8.743-5.716,4.364.522a.725.725,0,0,1,.384.169l3.4,2.8.522-4.364a.725.725,0,0,1,.169-.384l2.8-3.4-4.364-.522A.725.725,0,0,1,91.351,53l-3.4-2.8-.522,4.364a.725.725,0,0,1-.169.384Zm-48.51-3.35a.738.738,0,0,1-.553-.246l-9.189-9.865a2.717,2.717,0,0,1,0-3.672L35.4,31.345a.756.756,0,0,1,1.076-.031.771.771,0,0,1,.046,1.076l-9.189,9.865a1.2,1.2,0,0,0,0,1.613l9.189,9.865a.771.771,0,0,1-.046,1.076A.835.835,0,0,1,35.956,54.993Zm23.51,0a.756.756,0,0,1-.553-1.275L68.1,43.852a1.2,1.2,0,0,0,0-1.613l-9.189-9.865a.785.785,0,0,1,.031-1.076.77.77,0,0,1,1.076.031l9.189,9.865a2.717,2.717,0,0,1,0,3.672l-9.189,9.865A.7.7,0,0,1,59.466,54.993Zm-16.3,1.921a.6.6,0,0,1-.277-.061.747.747,0,0,1-.415-.983L52.444,31.1a.759.759,0,0,1,.983-.415.746.746,0,0,1,.415.983L43.87,56.437a.766.766,0,0,1-.707.476Z" fill="url(#linear-gradient)"/>
  </g>
</svg>
