<svg xmlns="http://www.w3.org/2000/svg" width="11.616" height="25" viewBox="0 0 11.616 25">
  <path id="Path_20" data-name="Path 20" d="M43.257,28.7V40.774a.331.331,0,0,0,.326.326h4.489a.331.331,0,0,0,.326-.326v-12.3h3.237a.348.348,0,0,0,.326-.3l.272-3.672a.321.321,0,0,0-.326-.354H48.371V21.541a1.1,1.1,0,0,1,1.115-1.115h2.5a.331.331,0,0,0,.326-.326V16.426a.331.331,0,0,0-.326-.326H47.746a4.493,4.493,0,0,0-4.489,4.489v3.564H41.026a.331.331,0,0,0-.326.326v3.7a.331.331,0,0,0,.326.326h2.231Z" transform="translate(-40.7 -16.1)" fill="#d6d6d6" fill-rule="evenodd"/>
</svg>
