<svg xmlns="http://www.w3.org/2000/svg" width="24.999" height="25" viewBox="0 0 24.999 25">
  <path id="Path_22" data-name="Path 22" d="M8.334,12.5A4.166,4.166,0,1,1,12.5,16.667,4.167,4.167,0,0,1,8.334,12.5m-2.253,0A6.419,6.419,0,1,0,12.5,6.081,6.418,6.418,0,0,0,6.081,12.5M17.673,5.827a1.5,1.5,0,1,0,1.5-1.5,1.5,1.5,0,0,0-1.5,1.5M7.45,22.675a6.9,6.9,0,0,1-2.321-.43A3.888,3.888,0,0,1,3.69,21.31a3.864,3.864,0,0,1-.935-1.437,6.9,6.9,0,0,1-.43-2.321c-.061-1.318-.073-1.713-.073-5.051s.013-3.733.073-5.051a6.937,6.937,0,0,1,.43-2.321A3.888,3.888,0,0,1,3.69,3.689a3.859,3.859,0,0,1,1.438-.935,6.9,6.9,0,0,1,2.321-.43c1.318-.061,1.713-.073,5.05-.073s3.733.013,5.051.073a6.937,6.937,0,0,1,2.321.43,3.875,3.875,0,0,1,1.438.935,3.88,3.88,0,0,1,.935,1.438,6.9,6.9,0,0,1,.43,2.321c.061,1.319.073,1.713.073,5.051s-.012,3.733-.073,5.051a6.931,6.931,0,0,1-.43,2.321,4.139,4.139,0,0,1-2.373,2.372,6.9,6.9,0,0,1-2.321.43c-1.318.061-1.713.073-5.051.073s-3.733-.012-5.05-.073m-.1-22.6A9.169,9.169,0,0,0,4.312.656,6.134,6.134,0,0,0,2.1,2.1,6.117,6.117,0,0,0,.656,4.312,9.169,9.169,0,0,0,.076,7.347C.014,8.679,0,9.105,0,12.5s.014,3.821.076,5.153a9.169,9.169,0,0,0,.581,3.034A6.112,6.112,0,0,0,2.1,22.9a6.13,6.13,0,0,0,2.214,1.442,9.174,9.174,0,0,0,3.034.581C8.68,24.985,9.105,25,12.5,25s3.821-.014,5.153-.076a9.169,9.169,0,0,0,3.034-.581,6.391,6.391,0,0,0,3.656-3.656,9.143,9.143,0,0,0,.581-3.034C24.985,16.32,25,15.895,25,12.5s-.014-3.821-.075-5.153a9.169,9.169,0,0,0-.581-3.034A6.147,6.147,0,0,0,22.9,2.1,6.13,6.13,0,0,0,20.689.656,9.154,9.154,0,0,0,17.654.076C16.322.015,15.9,0,12.5,0S8.68.014,7.347.076" fill="#d6d6d6"/>
</svg>
