<svg xmlns="http://www.w3.org/2000/svg" width="27.977" height="26.73" viewBox="0 0 27.977 26.73">
  <g id="Group_52" data-name="Group 52" transform="translate(-21.6 -23.4)">
    <path id="Path_29" data-name="Path 29" d="M50.3,55.4V65.27a.458.458,0,0,1-.45.45h-5.09a.458.458,0,0,1-.45-.45V56.095c0-2.424-.866-4.086-3.047-4.086a3.3,3.3,0,0,0-3.082,2.181,3.79,3.79,0,0,0-.208,1.454V65.27a.458.458,0,0,1-.45.45H32.464a.458.458,0,0,1-.45-.45c0-2.458.069-14.335,0-17.1a.458.458,0,0,1,.45-.45h5.09a.458.458,0,0,1,.45.45v2.112c0,.035-.035.035-.035.069H38v-.069a5.976,5.976,0,0,1,5.4-2.978c3.947,0,6.89,2.6,6.89,8.1ZM23.15,65.755h5.09a.458.458,0,0,0,.45-.45V48.166a.458.458,0,0,0-.45-.45H23.15a.458.458,0,0,0-.45.45V65.3A.484.484,0,0,0,23.15,65.755Z" transform="translate(-0.719 -15.625)" fill="#d6d6d6"/>
    <circle id="Ellipse_7" data-name="Ellipse 7" cx="3.22" cy="3.22" r="3.22" transform="translate(21.6 23.4)" fill="#d6d6d6"/>
  </g>
</svg>
