<svg xmlns="http://www.w3.org/2000/svg" xmlns:xlink="http://www.w3.org/1999/xlink" width="56.972" height="71.834" viewBox="0 0 56.972 71.834">
  <defs>
    <linearGradient id="linear-gradient" x1="-0.316" y1="-0.061" x2="1.145" y2="1.054" gradientUnits="objectBoundingBox">
      <stop offset="0" stop-color="#29efad"/>
      <stop offset="1" stop-color="#54d1fc"/>
    </linearGradient>
  </defs>
  <path id="Strategy" d="M95.532,24a2.477,2.477,0,0,0-2.477,2.477v2.477H86.862a2.477,2.477,0,0,0-2.477,2.477V32.67H74.477A2.477,2.477,0,0,0,72,35.147V93.357a2.477,2.477,0,0,0,2.477,2.477H126.5a2.477,2.477,0,0,0,2.477-2.477V35.147A2.477,2.477,0,0,0,126.5,32.67h-9.908V31.431a2.477,2.477,0,0,0-2.477-2.477h-7.431V26.477A2.477,2.477,0,0,0,104.2,24ZM74.477,35.147h9.908v1.239a2.477,2.477,0,0,0,2.477,2.477H114.11a2.477,2.477,0,0,0,2.477-2.477V35.147H126.5V93.357H74.477ZM104.2,28.954V26.477h-8.67v2.477ZM86.862,31.431H114.11v4.954H86.862ZM106.679,78.5a4.954,4.954,0,1,1,4.954,4.954A4.954,4.954,0,0,1,106.679,78.5Zm4.954-7.431a7.431,7.431,0,1,0,7.431,7.431A7.431,7.431,0,0,0,111.633,71.064Zm-7.068-24.408a1.239,1.239,0,0,0,0,1.752l5.317,5.317-5.317,5.317a1.239,1.239,0,0,0,1.752,1.752l5.317-5.317,5.317,5.317a1.239,1.239,0,0,0,1.752-1.752l-5.317-5.317,5.317-5.317a1.239,1.239,0,1,0-1.752-1.752l-5.317,5.317-5.317-5.317a1.239,1.239,0,0,0-1.752,0ZM90.578,50.109l4.18,3.344a1.239,1.239,0,1,0,1.548-1.934l-6.193-4.954a1.239,1.239,0,0,0-1.548,0l-6.193,4.954a1.239,1.239,0,1,0,1.548,1.934l4.18-3.344V78.495a1.239,1.239,0,0,0,1.239,1.239h6.193a1.239,1.239,0,0,0,0-2.477H90.578Z" transform="translate(-72 -24)" fill-rule="evenodd" fill="url(#linear-gradient)"/>
</svg>
