<svg xmlns="http://www.w3.org/2000/svg" width="29.73" height="25" viewBox="0 0 29.73 25">
  <g id="Twitter" transform="translate(0.73 -1.2)">
    <g id="_Group_" data-name="&lt;Group&gt;" transform="translate(0.57 2.5)">
      <g id="_Path_" data-name="&lt;Path&gt;" transform="translate(-0.57 -2.5)" fill="none" stroke-linecap="round" stroke-linejoin="round">
        <path d="M2.257,3.68a16.066,16.066,0,0,0,11.8,5.9c-.307-1.25-.33-4.648,2.052-6.063A6.181,6.181,0,0,1,19.361,2.5a5.485,5.485,0,0,1,4.022,1.769,12.386,12.386,0,0,0,3.539-1.345,5.391,5.391,0,0,1-2.359,3.032A10.345,10.345,0,0,0,27.7,5.178a10.97,10.97,0,0,1-2.807,2.866C25.73,15.558,18.995,24.9,9.417,24.9A17.41,17.41,0,0,1,.57,22.541a10.97,10.97,0,0,0,8.257-2.359,6.865,6.865,0,0,1-5.9-4.129c1.18.377,2.3.566,2.949,0a6.381,6.381,0,0,1-4.8-5.886,4.14,4.14,0,0,0,2.949,1.18A5.9,5.9,0,0,1,2.257,3.68Z" stroke="none"/>
        <path d="M 19.36061477661133 2.499994277954102 C 18.20175552368164 2.526174545288086 17.07361602783203 2.877704620361328 16.10499572753906 3.514434814453125 C 13.72225475311279 4.929925918579102 13.74584484100342 8.327095031738281 14.05253505706787 9.577445983886719 C 9.457744598388672 9.390275955200195 5.163415908813477 7.243114471435547 2.256795883178711 3.679574966430664 C 0.80633544921875 6.312755584716797 1.568504333496094 9.615505218505859 4.026155471801758 11.34680557250977 C 2.925567626953125 11.36124420166016 1.86430549621582 10.93681716918945 1.077215194702148 10.16723442077637 C 1.208475112915039 12.97171497344971 3.157234191894531 15.36098480224609 5.878084182739258 16.05331420898438 C 5.229314804077148 16.61950302124023 4.108724594116211 16.4307746887207 2.929145812988281 16.05331420898438 C 3.95799446105957 18.4326057434082 6.239284515380859 20.02950477600098 8.827014923095703 20.18181610107422 C 6.509616851806641 22.05756568908691 3.528558731079102 22.90929412841797 0.5699958801269531 22.54096603393555 C 3.255645751953125 24.10255432128906 6.310079574584961 24.91708564758301 9.416805267333984 24.90011596679688 C 18.99494552612305 24.90011596679688 25.73031616210938 15.55788516998291 24.89281463623047 8.043994903564453 C 25.99686431884766 7.269254684448242 26.94857597351074 6.297544479370117 27.70020484924316 5.177635192871094 C 26.70158576965332 5.599966049194336 25.64276504516602 5.862674713134766 24.56254577636719 5.956155776977539 C 25.69449615478516 5.269624710083008 26.53423500061035 4.190555572509766 26.92169570922852 2.924644470214844 C 25.81799507141113 3.551565170288086 24.62448501586914 4.005105972290039 23.38296508789062 4.269365310668945 C 22.34735488891602 3.144794464111328 20.88938522338867 2.50346565246582 19.36061477661133 2.499994277954102 M 19.36108016967773 1.199993133544922 C 19.36190795898438 1.199993133544922 19.36273574829102 1.199993133544922 19.36356544494629 1.199995040893555 C 20.98266983032227 1.203670501708984 22.54892730712891 1.792631149291992 23.76782989501953 2.837385177612305 C 24.64413261413574 2.594425201416016 25.48648643493652 2.244787216186523 26.27962493896484 1.794275283813477 C 26.74262428283691 1.531282424926758 27.31919479370117 1.57722282409668 27.73469543457031 1.910234451293945 C 28.15019607543945 2.243234634399414 28.32061576843262 2.795955657958984 28.16477584838867 3.30511474609375 C 28.10261726379395 3.508193969726562 28.03114128112793 3.707357406616211 27.95078659057617 3.902009963989258 C 28.23869132995605 3.958585739135742 28.50647163391113 4.112184524536133 28.70290565490723 4.350234985351562 C 29.06880569458008 4.793655395507812 29.10000610351562 5.424745559692383 28.77963447570801 5.902095794677734 C 28.07675552368164 6.949356079101562 27.22640228271484 7.872661590576172 26.24568176269531 8.654565811157227 C 26.34084320068359 10.5371208190918 26.0269889831543 12.53963088989258 25.32607460021973 14.49322509765625 C 24.54702568054199 16.66458511352539 23.30265426635742 18.74284553527832 21.72750473022461 20.50331497192383 C 20.17239379882812 22.24138641357422 18.36331558227539 23.61867523193359 16.35051536560059 24.59690475463867 C 14.1625804901123 25.6602611541748 11.8309383392334 26.19965362548828 9.420036315917969 26.20011520385742 C 9.387277603149414 26.20028305053711 9.354286193847656 26.20037460327148 9.321565628051758 26.20037460327148 C 6.021575927734375 26.20037460327148 2.769365310668945 25.32358551025391 -0.083465576171875 23.664794921875 C -0.6174755096435547 23.35428619384766 -0.8592453002929688 22.71087455749512 -0.6618442535400391 22.12553405761719 C -0.4644374847412109 21.54020690917969 0.1175708770751953 21.17460632324219 0.7306060791015625 21.25092506408691 C 1.125654220581055 21.30010604858398 1.527694702148438 21.32504463195801 1.925544738769531 21.32504463195801 C 3.172893524169922 21.32504463195801 4.405155181884766 21.08084297180176 5.55085563659668 20.61772918701172 C 5.204032897949219 20.44260406494141 4.868865966796875 20.24228858947754 4.548006057739258 20.01768493652344 C 3.308725357055664 19.15019607543945 2.336324691772461 17.95775604248047 1.735925674438477 16.56928634643555 C 1.539703369140625 16.11550140380859 1.618244171142578 15.59113597869873 1.935319900512695 15.21527004241943 C 1.783872604370117 15.058518409729 1.638412475585938 14.89473247528076 1.499155044555664 14.72399520874023 C 0.4511051177978516 13.43904495239258 -0.1438446044921875 11.88436508178711 -0.2213649749755859 10.2280158996582 C -0.2463340759277344 9.694385528564453 0.05768585205078125 9.199794769287109 0.54510498046875 8.981124877929688 C 0.5764312744140625 8.967071533203125 0.6081428527832031 8.954328536987305 0.6400928497314453 8.942909240722656 C -0.0300750732421875 7.062124252319336 0.08843612670898438 4.921630859375 1.118114471435547 3.052345275878906 C 1.326534271240234 2.673984527587891 1.709274291992188 2.423854827880859 2.139484405517578 2.38487434387207 C 2.569696426391602 2.345922470092773 2.991155624389648 2.523155212402344 3.264184951782227 2.857894897460938 C 5.614931106567383 5.739923477172852 8.959953308105469 7.616167068481445 12.60678100585938 8.140628814697266 C 12.60920524597168 7.580488204956055 12.66425800323486 6.964164733886719 12.79913520812988 6.33526611328125 C 13.17760372161865 4.570518493652344 14.08191299438477 3.214712142944336 15.4151782989502 2.412237167358398 C 16.58331489562988 1.650802612304688 17.93679046630859 1.231826782226562 19.33125495910645 1.200325012207031 C 19.34119606018066 1.200103759765625 19.35113906860352 1.199993133544922 19.36108016967773 1.199993133544922 Z" stroke="none" fill="#d6d6d6"/>
      </g>
    </g>
  </g>
</svg>
