<svg xmlns="http://www.w3.org/2000/svg" width="128.432" height="117.056" viewBox="0 0 128.432 117.056">
  <g id="Cubes" transform="translate(16836.877 -8746.586)">
    <path id="Path_455" data-name="Path 455" d="M1259.267,238.557c-1.992,0-3.984-.026-5.975.011-.949.018-1.919-.167-2.041-1.151-.153-1.228.813-1.709,1.934-1.723,4.232-.054,8.465-.087,12.7-.122.811-.007,1.551.247,1.68,1.127.163,1.116-.645,1.605-1.576,1.637-2.237.074-4.479.024-6.718.024v.2" transform="translate(-17976.027 8575.326)" fill="#121212"/>
    <path id="Path_458" data-name="Path 458" d="M1043.961,84.449c.122,1.189-.252,1.662-.872,1.89a1.2,1.2,0,0,1-1.532-.684q-2.858-6.407-5.592-12.869a1.213,1.213,0,0,1,.728-1.521,1.085,1.085,0,0,1,1.579.474c1.99,4.36,3.922,8.746,5.689,12.71" transform="translate(-17838.041 8680.71)" fill="#0a0a0a"/>
    <path id="Path_459" data-name="Path 459" d="M1254.818,167.5c.029,1.266-.747,1.573-1.39,1.856-3.735,1.643-7.5,3.226-11.246,4.837-.975.419-1.977.72-2.433-.6-.384-1.108.519-1.491,1.341-1.849,3.741-1.627,7.473-3.276,11.222-4.885,1.1-.47,2.166-.65,2.5.638" transform="translate(-17968.609 8619.575)" fill="#0a0a0a"/>
    <path id="Path_460" data-name="Path 460" d="M990.246,122.292a8.885,8.885,0,0,1-.934,1.007c-.631.5-1.205.1-1.633-.315q-4.792-4.633-9.521-9.329c-.516-.514-.972-1.177-.276-1.929.783-.848,1.575-.564,2.246.093q4.758,4.668,9.459,9.4a6.148,6.148,0,0,1,.66,1.078" transform="translate(-17800.648 8655.018)" fill="#090909"/>
    <path id="Path_462" data-name="Path 462" d="M1209.153,120.566c-.259-.2-.739-.41-.943-.773a1.441,1.441,0,0,1,.309-1.718q4.687-4.775,9.441-9.484a1.319,1.319,0,0,1,1.982-.073,1.22,1.22,0,0,1,.026,1.7c-3.266,3.385-6.586,6.718-9.905,10.051-.154.155-.46.159-.909.3" transform="translate(-17948.354 8657.002)" fill="#070707"/>
    <path id="Path_463" data-name="Path 463" d="M1168.478,71.585c-1.573,3.808-3.351,8.167-5.192,12.5a1.017,1.017,0,0,1-1.548.5,1.358,1.358,0,0,1-.652-1.878c1.683-4.135,3.345-8.28,5.035-12.413.311-.759.892-1.282,1.744-.9.606.274.755.926.614,2.192" transform="translate(-17918.168 8681.888)" fill="#090909"/>
    <path id="Path_464" data-name="Path 464" d="M1256.514,297.889a1.234,1.234,0,0,1-1.849,1.127c-4.139-1.62-8.242-3.329-12.368-4.982-.795-.319-1.259-.816-1.02-1.671a1.221,1.221,0,0,1,1.8-.758c4.148,1.593,8.275,3.239,12.4,4.885a1.474,1.474,0,0,1,1.039,1.4" transform="translate(-17969.605 8539.509)" fill="#080808"/>
    <path id="Path_465" data-name="Path 465" d="M954.521,176.924c-.1,1.77-1.173,1.752-2.128,1.385-4.03-1.546-8.026-3.179-12.024-4.807-.714-.291-1.294-.771-1.086-1.689a1.171,1.171,0,0,1,1.71-.881c4.249,1.663,8.475,3.386,12.69,5.133.384.16.634.641.838.858" transform="translate(-17776.117 8616.818)" fill="#070707"/>
    <path id="Path_467" data-name="Path 467" d="M1108.261,64.842c0,2.229.029,4.458-.02,6.686-.013.59-.154,1.277-.95,1.371a1.224,1.224,0,0,1-1.476-1.26q-.207-6.863-.273-13.73a1.2,1.2,0,0,1,1.4-1.339c.89.112,1.208.778,1.215,1.586.018,2.228.007,4.457.007,6.686h.095" transform="translate(-17882.674 8690.03)" fill="#080808"/>
    <path id="Path_695" data-name="Path 695" d="M1041.4,213.89c-3.226-5.609-6.692-10.341-14.5-7.871-2.767.876-7.522-6.112-6.3-8.934q2.3-5.3,4.932-10.456c1.065-2.085,1.2-3.746-.418-5.745-2.422-2.993-4.473-6.287-6.652-9.474-.468-.685-1.129-1.235-.986-2.3a9.608,9.608,0,0,1,8.748-8.182c1.813-.192,4.262.688,5.312-.976a40.7,40.7,0,0,0,4.569-9.722c.633-2.084-1.97-3.523-2.843-5.393-1.953-4.183-4.975-5.849-9.538-4.426a7.5,7.5,0,0,1-2.974.2c-2.983-.33-3.772,1.778-4.615,3.915a1.381,1.381,0,0,0,.2,1.7,1.044,1.044,0,0,0,1.637.015c1.109-1.681,1.566-.609,2.282.34,3.379,4.473,3.374,5.082-.527,10.608-1.317-1.884-2.567-3.737-3.89-5.535-.56-.761-1.155-1.857-2.362-.9-1,.785-.268,1.584.2,2.275,1.179,1.758,2.441,3.46,3.622,5.217,2.1,3.13-1.083,10.18-4.835,10.582-3.842.411-7.7.794-11.554.929a3.844,3.844,0,0,0-3.923,2.671c-1.555,3.658-3.359,7.211-5.065,10.8-.41.865-.583,1.837-1.725,2.23-4.709,1.621-8.465.442-11.33-3.649q-.965-1.377-1.925-2.757a2.919,2.919,0,0,0-2.42-1.455c-8.591-.456-10.245.511-14.086,8.464-.324.671-.621,1.358-.97,2.016a2.2,2.2,0,0,0-.058,2.094c2.967,7.143,6.493,9.121,14.167,8.445,2.9-.256,5.106-.924,5.75-3.991,1.142-5.439,4.89-6.747,9.815-6.6,1.378.039,2.3.179,3.085,1.439,1.177,1.9,2.565,3.675,3.893,5.481.439.6.981,1.289,1.828.755.952-.6.785-1.406.194-2.236-1.3-1.825-2.549-3.688-3.855-5.511a2.535,2.535,0,0,1-.344-3.034c1.791-3.45,3.374-7.008,5.231-10.926a32.8,32.8,0,0,0,3.111,4.3c4.529,4.421,5.257,9.059,1.479,14.369-1.206,1.695-1.842,3.794-2.756,5.7-.41.853-.541,1.976-1.836,2.04-.8.04-1.678.209-1.119,1.23.391.714,1.309.438,2.03.245,1.244-.631,2.67.079,3.917-.531,1.556-.185,3.257-.567,1.036-2.185-.939-.684-1.128-.89-.667-1.844,1.566-3.246,3.088-6.513,4.59-9.789a1.792,1.792,0,0,1,1.662-1.241c4.056-.163,8.074-1.081,12.491-.754-1.564,3.391-3.186,6.471-4.4,9.7-.8,2.125-2.158,2.681-4.183,2.933-1.354.168-3.99-.9-3.716,1.621.208,1.907,2.5.6,3.849.768a2.183,2.183,0,0,0,.373-.02c4.005-.195,8.72,6.43,6.579,9.743-3.256,5.037-3.035,9.329,1.274,13.469a9.587,9.587,0,0,1,1.258,1.849,3.046,3.046,0,0,0,2.816,1.4c6.609.226,12.427-.666,13.913-8.65a6.186,6.186,0,0,1,.788-1.683,2.574,2.574,0,0,0-.248-2.773m-18.331-55.38c1.151-6.324,1.925-6.9,9.364-6.929-1.853,6.8-2.1,6.986-9.364,6.929m-1.431-14.818c5.781-2.248,7.287-1.577,10.546,4.752-5.347,2.137-8.763.336-10.546-4.752m-43.371,42.457c-6.94,1.574-7.078,1.511-10.578-4.8,7.591-2.109,7.072-1.518,10.578,4.8m-13.213-3.125c5.511,6.655,4.591,4.5,1.036,11.915-4.96-5.8-4.965-5.863-1.036-11.915m3.83,12.944c2.622-7.075,2.806-7.2,9.711-6.518-3.246,7.629-1.071,6.529-9.711,6.518m41.8-12.289c-1.487.186-1.995-.707-2.626-1.6-2.148-3.039-4.272-6.095-6.777-9.676,4.586-.4,8.721-.763,12.858-1.123a1.893,1.893,0,0,1,1.805,1.06c2.225,3.257,4.491,6.486,7.057,10.178-4.476.406-8.41.675-12.316,1.161m27.3,30.221c-6.794,1.785-7.263,1.565-10.761-4.864,8.061-1.321,6.095-2.362,10.761,4.864m-12.1,8.7c-5.013-4.436-5.114-5.318-1.357-11.882,4.592,5.011,4.592,5.011,1.357,11.882m2.779,1.376c1.545-6.6,2.67-7.4,9.472-6.74-2.075,6.694-2.142,6.741-9.472,6.74" transform="translate(-17788.883 8636.617)" fill="#020224"/>
  </g>
</svg>
