<svg xmlns="http://www.w3.org/2000/svg" width="45.584" height="92.058" viewBox="0 0 45.584 92.058">
  <g id="Hands" transform="translate(16921.207 -8802.616)">
    <path id="Path_489" data-name="Path 489" d="M804.713,229.426c-1.507,1.806-2.987,3.816-5.2,4.928a1.044,1.044,0,0,1-1.309-1.506,14.415,14.415,0,0,1,4.621-4.714c.966-.642,1.542.157,1.886,1.293" transform="translate(-17685.656 8580.239)" fill="#131333"/>
    <path id="Path_490" data-name="Path 490" d="M754.267,218.468c.081,1.163-.2,2.529-1.1,2.072-2.4-1.21-1.852-4.052-2.683-6.154-.313-.791.261-1.834.986-1.6,2.9.939,1.708,4.007,2.8,5.682" transform="translate(-17655.115 8589.947)" fill="#131334"/>
    <path id="Path_491" data-name="Path 491" d="M781.642,214.721q-.525,2.158-1.058,4.313c-.232.933-.755,1.689-1.785,1.36-.976-.312-1.092-1.132-.768-2.127.458-1.407.744-2.869,1.114-4.3.237-.918.684-1.7,1.785-1.36,1.081.338,1.043,1.218.711,2.118" transform="translate(-17672.719 8590.096)" fill="#151535"/>
    <path id="Path_696" data-name="Path 696" d="M747.777,277.77c-3.559-.911-6.773-3.471-10.166-3.486-3.522-.015-4.883-3.948-8.256-3.274a1.657,1.657,0,0,1-.255-.923c.7-2.23.469-4.672,3.624-5.827a10.4,10.4,0,0,0,6.931-9.618c.015-5.766-3.048-10.192-7.591-11.893a11.734,11.734,0,0,0-12.933,3.3c-3.157,3.664-4.089,9.235-1.258,13.17,2.208,3.069,2.07,5.721.935,8.862a24.172,24.172,0,0,0-1.284,5.051c-.3,2.3-1.539,3.141-3.725,3.267-1.994.115-4.535.275-5.276,2.217-2.1,5.494-5.626,11.337-3.2,17.1,3.32,7.882,3.063,15.312.566,23.066a15.652,15.652,0,0,0-.563,2.164c-.162.956-.553,2.177.809,2.487,1.424.324,1.525-1.061,1.742-1.935.9-3.621,1.888-7.238,2.45-10.917.382-2.5,1.391-2.572,3.457-2,6.826,1.9,13.664,3.8,20.573,5.362,3.444.781,4.946,2,3.247,5.578-.421.886-.964,2.421.5,2.909,1.653.55,1.674-1.156,1.927-2.1q4.975-18.549,9.831-37.13c.595-2.272.026-4.888-2.089-5.43m-27.818-28.287a8.95,8.95,0,0,1,9.7-4.675,9.1,9.1,0,0,1,7.443,7.8c.6,3.792-1.364,7.183-5.891,9.521.632-2.43,1.178-4.322,1.611-6.239.862-3.811-.42-6.411-3.452-7.151-3.088-.753-5.475.844-6.555,4.448-.56,1.869-1.034,3.765-1.568,5.729-2.711-2.744-3.1-5.9-1.285-9.43m27.378,33.149c-2.48,9.5-5.023,18.979-7.459,28.487-.439,1.717-1.48,1.353-2.535,1.074-8.176-2.157-16.34-4.361-24.52-6.5-.888-.232-1.729-.4-2.028-1.365-1.729-5.6-5.172-10.954-2.452-17.208a11.609,11.609,0,0,0,.879-3.232c.443-3.8,2.565-5.362,6.727-4.935-.667,2.668-1.283,5.072-1.865,7.484-.221.914-.9,2.109.438,2.563,1.633.554,1.707-.908,1.988-1.967q3.682-13.875,7.37-27.75c.447-1.68,1.01-3.334,1.36-5.033.4-1.921,1.2-3.529,3.393-2.981,2.155.538,2.219,2.3,1.689,4.228-1.584,5.75-3.1,11.519-4.6,17.292-.3,1.152-1.183,2.656.007,3.469,1.618,1.106,1.8-1,2.64-1.691,1.8-1.486,4.039-.572,4.394,1.786.152,1.007-.837,2.41.707,2.908,1.305.421,1.44-1.069,2.066-1.746a2.39,2.39,0,0,1,3-.772,2.487,2.487,0,0,1,1.56,2.71c-.175,1.054-.464,2.112.774,2.481,1.013.3,1.375-.714,1.844-1.464a2.416,2.416,0,0,1,3.258-.949,2.444,2.444,0,0,1,1.365,3.112" transform="translate(-17625.711 8571.198)" fill="#020225"/>
  </g>
</svg>
