<svg xmlns="http://www.w3.org/2000/svg" width="68.828" height="87.905" viewBox="0 0 68.828 87.905">
  <g id="Mobile_phone" data-name="Mobile phone" transform="translate(17081.404 -8726.269)">
    <path id="Path_721" data-name="Path 721" d="M424.907,225.281a.8.8,0,0,1-1.439-.273c-1.152-2.979-2.224-5.989-3.292-9-.183-.515-.019-1.016.624-1.059.3-.021.818.106.889.3,1.17,3.1,2.291,6.22,3.393,9.346.065.185-.111.456-.176.69" transform="translate(-17443.482 8588.542)" fill="#161636"/>
    <path id="Path_722" data-name="Path 722" d="M439.04,208.549c-.311.334-.646.993-1.131.467a9.681,9.681,0,0,1-2.11-5.4c-.077-.514.406-.847,1-.7.7.168,2.561,4.858,2.236,5.637" transform="translate(-17453.533 8596.274)" fill="#212140"/>
    <g id="Group_313" data-name="Group 313">
      <path id="Path_717" data-name="Path 717" d="M299.855,69.437c3.424-4.035,7-8.19,10.5-12.409a3.011,3.011,0,0,1,3.32-.966c5.247,1.027,10.506,1.992,15.76,2.98.935.176,2.33.053,1.936,1.55-.376,1.43-1.711.665-2.556.523-4.539-.764-9.094-1.494-13.569-2.55a4.206,4.206,0,0,0-4.779,1.711c-2.91,3.569-5.884,7.087-8.885,10.58-.591.688-1.312,1.905-2.4.965-.876-.761.1-1.537.673-2.384" transform="translate(-17365.777 8690.425)" fill="#09092b"/>
      <path id="Path_718" data-name="Path 718" d="M351.533,126.02q-5.549,6.542-11.094,13.081a2.667,2.667,0,0,1-2.712.807c-5.375-1-10.756-1.957-16.123-2.992-.869-.167-2.282-.172-1.873-1.644.3-1.094,1.374-.738,2.233-.574,4.759.9,9.525,1.767,14.277,2.7a3.327,3.327,0,0,0,3.811-1.308c3.067-3.907,6.4-7.6,9.642-11.374.574-.668,1.233-1.436,2.162-.629.809.7-.02,1.314-.323,1.93" transform="translate(-17379.121 8646.979)" fill="#0a0a2c"/>
      <g id="Group_312" data-name="Group 312">
        <path id="Path_719" data-name="Path 719" d="M261.667,124.278c4.006.726,7.429,1.338,10.848,1.971.748.138,1.61.379,1.527,1.306-.116,1.3-1.106,1.018-1.983.851-3.9-.745-7.792-1.572-11.716-2.172-2.319-.355-2.038-1.343-.93-2.671,2.549-3.057,5.144-6.075,7.719-9.112.5-.595,1.106-1.2,1.881-.675,1.12.758.279,1.57-.23,2.181-2.212,2.656-4.487,5.26-7.116,8.322" transform="translate(-17339.986 8653.495)" fill="#0b0b2c"/>
        <path id="Path_720" data-name="Path 720" d="M419.714,73.849c-3.9-.74-7.165-1.337-10.416-1.991-.821-.165-2.057-.336-1.938-1.348.165-1.4,1.441-1,2.4-.828,3.648.649,7.292,1.321,10.939,1.977,2.331.419,2.619,1.482,1.094,3.237-2.44,2.809-4.845,5.648-7.252,8.486-.572.674-1.235,1.572-2.107.887-1.2-.939-.009-1.8.539-2.476,2.023-2.487,4.141-4.9,6.745-7.943" transform="translate(-17435.311 8681.738)" fill="#09092a"/>
        <path id="Path_723" data-name="Path 723" d="M395.674,63.088a4.5,4.5,0,0,1,1.319,3.9.849.849,0,0,1-1.455.4,4.54,4.54,0,0,1-1.331-3.632c.1-.735.685-.916,1.468-.671" transform="translate(-17426.867 8685.91)" fill="#171737"/>
        <path id="Path_724" data-name="Path 724" d="M313.322,16.516c-1.557-4.337-3.2-8.646-4.637-13.023-1.1-3.359-3.192-4.13-6.344-3.006-10.087,3.6-20.167,7.217-30.285,10.727-3.3,1.144-4.17,3.108-3.019,6.334,4.1,11.495,8.115,23.02,12.21,34.517.341.957.5,2.757,1.864,2.309,1.766-.578.521-2.109.162-3.142-3.031-8.7-6.073-17.4-9.231-26.059-.868-2.38-.428-3.549,2.1-4.4q14.507-4.915,28.881-10.218c2.629-.975,3.912-.585,4.622,2.178a53.873,53.873,0,0,0,2.06,5.621c.738.545,1.261.631,1.64.243.638-.652.229-1.381-.02-2.076m-8.15-8.373C295,11.809,284.8,15.4,274.625,19.07c-1.489.538-2.7,1.228-3.174-1.1-.38-1.874-1.665-3.712,1.383-4.741,8.243-2.782,16.422-5.756,24.627-8.651,1.876-.662,3.76-1.3,5.632-1.973a3.165,3.165,0,0,1,2.611-.128,8.153,8.153,0,0,1,1.716,4.341c.22,1.288-1.423,1.027-2.249,1.325" transform="translate(-17346.377 8726.266)" fill="#030326"/>
        <path id="Path_725" data-name="Path 725" d="M357.015,118.307c-3.594-10.087-7.109-20.2-10.728-30.28-.326-.907-.357-2.776-1.825-2.292-1.846.608-.482,2.119-.134,3.129,2.474,7.18,5.037,14.328,7.558,21.492.592,1.682,1.28,3.283-1.28,4.175-10.229,3.565-20.422,7.232-30.62,10.886-1.756.629-2.781.208-3.37-1.662-.971-3.086-2.09-6.127-3.226-9.157-.266-.71-.343-1.952-1.572-1.632-1.554.405-.785,1.552-.487,2.4,1.985,5.637,4.08,11.236,6,16.893,1.065,3.134,2.94,4.056,6.032,2.951q15.3-5.472,30.633-10.843a5.127,5.127,0,0,0,3.04-2.26,4.524,4.524,0,0,0-.024-3.8m-3.786,4.047c-7.655,2.563-15.228,5.368-22.837,8.07-1.522.54-3.068,1.016-4.575,1.594-6.255,2.4-5.529,2.169-7.492-3.725,11-3.911,22.008-7.8,32.994-11.755,1.46-.525,2.747-1.3,3.195,1.071.343,1.813,1.9,3.679-1.286,4.744" transform="translate(-17373.496 8671.384)" fill="#030326"/>
        <path id="Path_726" data-name="Path 726" d="M342.749,88.442q-2.116-5.785-4.122-11.609c-.26-.751-.6-1.5-1.358-1.649-4.622-.915-9.253-2.334-13.895-2.385-2.8-.031-3.932,3.766-5.869,5.788-1.2,1.256-2.293,2.62-3.491,3.881a3.335,3.335,0,0,0-.781,3.7c4.005,13.037,3.979,13.017,17.52,15.089,1.493.228,2.592.2,3.622-1.044,2.541-3.066,5.177-6.052,7.59-8.855a2.488,2.488,0,0,0,.784-2.917M322.994,75.359c.683-.947,1.638-.425,2.4-.3,3.054.514,6.085,1.161,9.4,1.813-6.8,9.489-7.937,9.888-18.253,6.562,1.7-3.1,4.452-5.3,6.45-8.078m4.717,23.094c-9.027-1.606-10.222-2.869-11.663-12.463,3.194.579,6.332,1.161,9.476,1.709a2.425,2.425,0,0,1,2.133,1.754c.99,3.035,2.052,6.046,3.248,9.542-1.5-.255-2.349-.392-3.193-.542m5.534-.648c-4.906-9.546-4.583-11.344,3.586-19.162.281.72.417,1.058.546,1.4C341.217,90.2,341.217,90.2,333.245,97.8" transform="translate(-17374.852 8679.623)" fill="#040426"/>
        <path id="Path_727" data-name="Path 727" d="M321.9,24.763c.86.44.993,1.217.556,1.575a8.609,8.609,0,0,1-5.723,1.987c-.632-.014-.836-1.142-.413-1.445a13.147,13.147,0,0,1,5.58-2.117" transform="translate(-17376.84 8710.401)" fill="#1d1d3c"/>
      </g>
    </g>
  </g>
</svg>
