<svg xmlns="http://www.w3.org/2000/svg" width="89.063" height="87.614" viewBox="0 0 89.063 87.614">
  <g id="Monitor" transform="translate(16701.348 -8869.949)">
    <path id="Path_707" data-name="Path 707" d="M1346.034,478.3c.634.639,1.648,1.321.908,2.14-.978,1.082-1.738-.226-2.5-.688-2.968-1.8-4.394-5.807-8.524-5.946-1.739-4.964-6.706-6.89-9.87-10.511a1,1,0,0,1-.017-1.368c.694-.784,1.248-.269,1.9.156.926.6,1.607,2.474,2.964,1.315a19.889,19.889,0,0,0,4.08-4.826c.514-.858-.9-1.59-1.616-2.232-4.913-4.4-9.775-8.869-14.785-13.16-2.7-2.314-2.677-4.545-.462-7.03q15.282-17.145,30.574-34.282c2.3-2.586,4.592-2.473,7.095-.236q23.809,21.285,47.674,42.507c2.524,2.244,2.866,4.426.535,7.039q-15.415,17.276-30.76,34.614c-2.371,2.663-4.753,2.051-7.124-.112-4.691-4.28-9.375-8.57-14.16-12.743-.994-.867-2.379-3.114-3.75-.641-1.008,1.817-5.334,2.715-2.162,6" transform="translate(-18017.844 8470.005)" fill="#020225"/>
    <path id="Path_708" data-name="Path 708" d="M1350.5,451.421c-1.166-1.017-.279-1.671.395-2.426q10.555-11.84,21.081-23.707c1.2-1.349,2.076-2.038,3.887-.4q20.649,18.629,41.535,36.995c1.641,1.447,1.082,2.323-.038,3.572-7.143,7.966-14.32,15.9-21.32,23.995-1.76,2.035-2.583.355-3.506-.46-7.559-6.67-15.05-13.417-22.569-20.132q-8.492-7.584-17-15.152c-.835-.745-1.646-1.519-2.468-2.28" transform="translate(-18039.266 8454.635)" fill="#fefefe"/>
    <path id="Path_709" data-name="Path 709" d="M1323.09,501.707c-1.392-2.788,1.81-3.653,2.86-5.476,1.238-2.15,2.312-.454,3.188.324q22.871,20.327,45.679,40.723c.371.331.7.713,1.071,1.043,2.952,2.606,2.46,5.98-1.085,7.7-1.5.727-2.389-.3-3.271-1.08q-18.542-16.493-37.033-33.043c-3.711-3.315-7.421-6.631-11.408-10.194" transform="translate(-18021.848 8408.981)" fill="#fefefe"/>
    <path id="Path_710" data-name="Path 710" d="M1365.708,407.1c1.428-1.482,2.546-.865,3.844.3q19.616,17.559,39.3,35.045c2.7,2.4,5.348,4.853,8.12,7.162,1.668,1.39,1.992,2.6.44,4.329q-12.211,13.623-24.322,27.337c-.585.659-1.137,1.5-2.094.54-1.315-1.317.172-2.063.774-2.747,7.239-8.218,14.466-16.449,21.891-24.5,1.825-1.979,1.756-3.106-.152-4.8q-21.8-19.329-43.47-38.795c-2.072-1.865-3.189-1.649-4.99.451-6.723,7.84-13.679,15.482-20.55,23.194a12.725,12.725,0,0,1-1.292,1.349c-.751.628-1.286,2.267-2.614.89-1.1-1.143.231-1.729.825-2.4,4.628-5.211,9.286-10.395,13.917-15.6,3.473-3.906,6.918-7.835,10.375-11.754" transform="translate(-18033.012 8465.977)" fill="#fcfcfc"/>
    <path id="Path_711" data-name="Path 711" d="M1361.927,574.477c-.691-.777-1.494-1.276-1.073-1.83,1.338-1.762,2.612-3.74,4.38-4.947,1.094-.747,2.151,1.19,3.152,1.976a56.5,56.5,0,0,1,4.38,4c1.1,1.069,3.444,1.853,2.817,3.438-.724,1.83-2.618,3.221-4.085,4.724-.785.805-1.359-.138-1.83-.542-2.723-2.335-5.388-4.736-7.741-6.821" transform="translate(-18046.191 8362.624)" fill="#fcfcfc"/>
    <path id="Path_712" data-name="Path 712" d="M1412.375,484.183c.69,3.372,1.141,5.546,1.576,7.723.152.761.206,1.591-.8,1.729-.928.128-1.265-.543-1.341-1.389a8.514,8.514,0,0,0-.256-1.085c-2.089-9.236-1.246-10.044,8.065-7.746.718.177,1.606.235,1.533,1.214-.07.922-.9,1.181-1.663,1.04-2.2-.4-4.375-.906-7.115-1.487" transform="translate(-18078.146 8417.217)" fill="#0b0b2c"/>
    <path id="Path_713" data-name="Path 713" d="M1451.138,527.991c-.252-1.157.133-1.758,1.316-1.645,1.732.166,3.478.264,5.186.571,1.9.341,2.082-.452,1.679-2.006-.435-1.674-.748-3.382-1.068-5.085-.121-.645.03-1.344.77-1.455a1.2,1.2,0,0,1,1.322,1.058c.6,2.66,1.177,5.324,1.755,7.988.273,1.255-.31,2.053-1.524,1.965-2.848-.207-5.685-.582-8.522-.926a2.96,2.96,0,0,1-.915-.466" transform="translate(-18104.068 8394.131)" fill="#0b0b2c"/>
    <path id="Path_714" data-name="Path 714" d="M1437.388,504.65c-4.562,2.324-9.409,4.792-14.255,7.264-.593.3-1.229.478-1.586-.229a1.3,1.3,0,0,1,.694-1.849q7.25-3.745,14.52-7.451c.686-.35,1.5-.531,1.887.342s-.413,1.289-1.261,1.922" transform="translate(-18085.049 8404.551)" fill="#0d0d2e"/>
  </g>
</svg>
