<svg xmlns="http://www.w3.org/2000/svg" width="61.525" height="61.196" viewBox="0 0 61.525 61.196">
  <g id="persons" transform="translate(16627.223 -8975.706)">
    <path id="Path_599" data-name="Path 599" d="M1527.743,810.3c-.083.693-.5,1.276-1.144,1.2a1.447,1.447,0,0,1-1.216-1.608,1.118,1.118,0,0,1,1.158-1.18c.887.051,1.15.8,1.2,1.593" transform="translate(-18151.688 8208.094)" fill="#31314d"/>
    <path id="Path_692" data-name="Path 692" d="M1583.485,742.642c-.372-2.288-1.277-4.959-3.875-4.732-4.343.38-9.018.415-12.434,3.942-.517.534-.8,1.157-1.778.841a7.1,7.1,0,0,1-4.353-7.518,15.4,15.4,0,0,0,.319-3.331c-.062-1.941.855-2.945,2.733-3.354,1.735-.378,3.154-.443,3.987,1.542,1.174,2.8,3.428,3.289,6.169,2.72,1.946-.4,3.9-.787,5.812-1.315,3.889-1.07,4.088-1.4,3.655-5.82a19.309,19.309,0,0,1-.7-2.128c-2.229-10.619-1.977-8.493-10.834-6.754-.609.12-1.191.412-1.8.482-2.86.331-3.876,1.878-3.263,4.654.25,1.132.981,2.757-1.063,2.818-2.317.069-5,2.564-6.886.11-5.621-7.324-5.488-7.426-1.169-15.82.165-.322.334-.642.647-1.241.968,3.583,3.252,3.665,6.156,2.929,10.99-2.787,9.96-1.119,7.541-11.97-1.028-4.611-1.553-4.919-6.073-3.888-1.941.443-3.873.944-5.834,1.277-2.79.474-3.975,1.938-3.065,4.707a7.161,7.161,0,0,1-.88,6,66.092,66.092,0,0,0-3.046,6.4c-.828,1.988-1.526,2.684-3.96,1.556a18.552,18.552,0,0,0-26.3,14.126c-.181,1.186-1.039,3.208.838,3.484,1.911.281,1.134-1.787,1.307-2.837,2.114-12.874,16.368-18.616,26.579-10.774,6.262,4.809,8.333,15.683,3.646,20.427-1.694-2.024-3.552-3.886-6.16-4.641-1.754-.508-1.986-1.108-1.029-2.778a7.742,7.742,0,0,0-.347-8.5,8.123,8.123,0,0,0-8.7-3.746,7.93,7.93,0,0,0-6.759,6.13c-1,3.643.173,6.587,2.949,9.012.758.662,2.82.893.941,2.545-2.306,2.029-3.244,4.812-4.057,7.681-1.612-.63-2.423-1.951-3.531-2.928-1.175-1.035-2.074-1.081-1.958.895a2.279,2.279,0,0,0,2.025,2.252c8.6,7.584,20.075,6.766,27.414-1.886.593-.7,1.12-2.75,2.368-1.509,3.708,3.691,10.088,4.879,10.8,11.453a2.459,2.459,0,0,0,2.916,2.3c4.038-.982,8.411-.952,11.929-3.643V748.82c-.671-2.008-.534-4.128-.867-6.178m-48.979-14.77a6.3,6.3,0,0,1,6.111-6.271,6.237,6.237,0,1,1,.451,12.466,6.3,6.3,0,0,1-6.562-6.195m18.459,15.69a18,18,0,0,1-11.728,4.487c-2.013-.494-5.212.206-6.111-2.092-.96-2.455.863-5,2.694-6.936a10.369,10.369,0,0,1,15.414.852c1.077,1.4,1.22,2.41-.269,3.688" transform="translate(-18150.051 8281.381)" fill="#020225"/>
    <path id="Path_693" data-name="Path 693" d="M1650.125,763.172a11.705,11.705,0,0,1,9.191-3c3.85.642,3.568,5.6,3.264,8.089-.518,4.253-5.87,3.641-8.3,3.336-3.792-.477-1.586-5.619-4.158-8.421" transform="translate(-18231.615 8239.261)" fill="#f9f9f9"/>
    <path id="Path_694" data-name="Path 694" d="M1663.025,822.633c1.982,2.9,1.84,6.291,2.775,9.242.351,1.108-6.456,4.384-8.792,3.32-3.385-1.542-3.385-6.084-2.915-8.626.684-3.7,5.658-1.753,8.931-3.937" transform="translate(-18234.018 8199.168)" fill="#f9f9fa"/>
    <path id="Path_704" data-name="Path 704" d="M1659.7,768.8c2,1.8,2.671-.088,3.564-1.576.411-.686,1.087-1.1,1.847-.551a1.115,1.115,0,0,1,.14,1.651c-1.083,1.417-1.332,3.74-3.307,4.1-.929.169-2.149-.973-3.148-1.651a1.671,1.671,0,0,1-.42-1.291c.033-.576.564-.711,1.324-.68" transform="translate(-18236.902 8235.187)" fill="#111131"/>
    <path id="Path_705" data-name="Path 705" d="M1666.32,832.793c-.847,1.418-1.415,3.394-3.018,4.343-1.4.828-2.385-.887-3.558-1.453-.577-.279-.994-.883-.54-1.508.234-.323,1.024-.672,1.212-.532,2.295,1.686,2.9-.318,3.835-1.664a1.322,1.322,0,0,1,1.6-.6c.5.188.644.692.466,1.419" transform="translate(-18237.311 8193.622)" fill="#111132"/>
    <path id="Path_706" data-name="Path 706" d="M1633.839,701.274c-2.4-.349-7.527-.7-8.271,3.206a12.261,12.261,0,0,0,2.574,9.1c3.26-2.15,8.25-.331,8.813-4.064.37-2.454.639-7.7-3.117-8.244m-2.436,8.1c-1.352.735-2.357-.979-3.526-1.568-.3-.15-.485-.87-.427-1.286.073-.514.725-.925,1.13-.645,2.25,1.556,2.966-.133,3.83-1.668a1.147,1.147,0,0,1,1.555-.62c.345.186.48.764.693,1.137-1.031,1.751-1.611,3.756-3.255,4.649" transform="translate(-18215.795 8277.057)" fill="#f9f9fa"/>
  </g>
</svg>
