<svg xmlns="http://www.w3.org/2000/svg" width="65.357" height="82.445" viewBox="0 0 65.357 82.445">
  <g id="Rocket" transform="translate(-3.547 -89.004)">
    <path id="Path_457" data-name="Path 457" d="M165.843,450.295c-.182.259-.369.794-.732.977a1.3,1.3,0,0,1-1.666-.436q-4.34-5.848-8.64-11.726c-.482-.659-.614-1.37.21-1.914a1.212,1.212,0,0,1,1.7.164c2.99,3.974,5.929,7.987,8.87,12a3.492,3.492,0,0,1,.262.936" transform="translate(-98.943 -279.965)" fill="#0a0a2b"/>
    <path id="Path_485" data-name="Path 485" d="M178.877,420.221a7.385,7.385,0,0,1-.775,1.2.991.991,0,0,1-1.6-.042,69.737,69.737,0,0,1-4.717-6.572c-.546-.924.491-2.264,1.521-1.554,2.46,1.7,3.72,4.5,5.572,6.969" transform="translate(-109.973 -264.664)" fill="#101031"/>
    <path id="Path_487" data-name="Path 487" d="M128.233,445.8a3.361,3.361,0,0,1,1.059.672c1.491,1.956,2.961,3.931,4.352,5.959a1.334,1.334,0,0,1-.43,1.945,1.2,1.2,0,0,1-1.65-.329c-1.558-2.056-3.142-4.1-4.542-6.266-.533-.824-.054-1.66,1.211-1.98" transform="translate(-81.252 -285.648)" fill="#0b0b2c"/>
    <path id="Path_492" data-name="Path 492" d="M76.367,264.466c-.036.971-.7,1.7-1.35,1.466-1.774-.64-3.759-1.226-4.558-3.193a1.053,1.053,0,0,1,1.212-1.383,7.5,7.5,0,0,1,4.7,3.11" transform="translate(-45.102 -167.446)" fill="#151535"/>
    <path id="Path_697" data-name="Path 697" d="M72.869,292.334c-2.949-10.254-1.988-13.188-13.334-15.175a7.78,7.78,0,0,1-6.151-4.556A44.782,44.782,0,0,0,44.3,260.808c-.891-.844-1.808-2.7-3.257-1.22-1.251,1.281.426,2.12,1.225,2.977.17.182.355.351.526.532C49.853,270.582,54.9,279.139,57,289.328c.482,2.338.122,3.891-2.024,5.3-3.742,2.455-7.339,5.153-10.829,7.958a4.129,4.129,0,0,1-5.312.431,52.307,52.307,0,0,1-22.07-23.656A39.852,39.852,0,0,1,13.5,253.174c.46-2.182,1.325-3,3.511-2.546,2.433.5,4.9.845,7.342,1.312,1.152.221,2.618,1.237,3.06-.63.326-1.376-1.048-1.713-2.186-2a41.207,41.207,0,0,0-8.074-1.456c-5.3-.274-5.336-.3-6.351,4.829-3.1,15.645,1.69,29.122,12.042,40.65,3.016,3.358,4.1,6.386,3.235,10.607s.184,7.952,3.9,10.538c2.039,1.419,4.233,2.617,6.275,4.032,1.977,1.369,2.878.534,3.49-1.4.868-2.739,1.8-5.459,2.75-8.33,4.983,4.208,5.829,4.223,10.919.473q2.406-1.772,4.812-3.545c5.683-4.184,5.754-4.386,3.511-11.232,3.14,0,6.1,0,9.051,0,1.425,0,2.592-.354,2.078-2.142M39.134,309.706c-.74,1.906-.222,4.873-2.709,5.439-1.988.452-7.419-4.8-7.592-6.945-.205-2.545-.048-5.12-.048-8.324,3.935,2.346,6.946,4.683,10.375,6.329,1.94.931.369,2.487-.026,3.5m19.628-7.789c-2.9,2.1-5.839,4.176-8.644,6.409-2.237,1.78-3.628.476-5-1.09-1.912-2.181.729-2.414,1.565-3.086,3.081-2.477,6.316-4.764,9.545-7.05.717-.507,1.37-1.8,2.409-1.072a4.716,4.716,0,0,1,1.693,2.815,3.08,3.08,0,0,1-1.568,3.074m10.435-10.2c-8.293.967-8.284.964-10.478-6.856-.464-1.654-1.021-3.281-1.657-5.3C67.323,281.43,68.195,282.3,69.5,291.569a1.014,1.014,0,0,1-.3.149" transform="translate(-6.328 -158.75)" fill="#020225"/>
    <path id="Path_701" data-name="Path 701" d="M48.241,284.57c-5.959-2.041-10.854,1.414-10.9,7.691-.042,6.244,4.913,12.837,10.9,14.51,5.428,1.516,10.035-1.9,10.217-7.579.2-6.112-4.347-12.608-10.226-14.622m.339,19.4c-4.745-1.373-8.807-7.388-8.373-12.4.318-3.677,2.879-5.494,6.478-4.6,4.735,1.18,8.951,6.593,9.02,11.583.061,4.391-2.9,6.638-7.125,5.413" transform="translate(-23.93 -181.963)" fill="#050527"/>
  </g>
</svg>
