<svg xmlns="http://www.w3.org/2000/svg" width="95.521" height="80.054" viewBox="0 0 95.521 80.054">
  <g id="Thumb" transform="translate(16798.58 -8937.015)">
    <path id="Path_497" data-name="Path 497" d="M1286.711,652.478c-.66.17-.811.263-.887.221a8.511,8.511,0,0,1-4.214-5.264c-.038-.135.6-.667.708-.61a8.934,8.934,0,0,1,4.393,5.653" transform="translate(-17995.488 8311.819)" fill="#191919"/>
    <path id="Path_498" data-name="Path 498" d="M1242.173,596.634c.688,1,.893,1.986.264,2-2.553.059-2.853-2.691-4.417-3.935-.482-.384-.472-1.546.109-1.581,2.694-.164,2.695,2.833,4.043,3.516" transform="translate(-17967.338 8346.232)" fill="#191919"/>
    <path id="Path_499" data-name="Path 499" d="M1276.806,593.161c-.466.12-1.193.3-1.211-.282a10.521,10.521,0,0,1,2.156-6.018c.224-.343.87-.343,1.2.235.375.665-1.369,5.657-2.141,6.065" transform="translate(-17991.635 8350.388)" fill="#161616"/>
    <path id="Path_500" data-name="Path 500" d="M1293.649,618.837c1.638.395,3.681-1.573,5.475.22.434.434-.445,1.091-1.023,1.13-1.927.129-3.948,1.707-5.741-.076-.444-.442.368-1,1.288-1.274" transform="translate(-18002.299 8330.1)" fill="#101010"/>
    <path id="Path_698" data-name="Path 698" d="M1123.374,602.285q-31.186-5.813-62.388-11.536c-4.015-.736-5.6.334-6.332,4.237q-4.345,23.3-8.586,46.61c-.74,4.074.236,5.465,4.306,6.258,6.464,1.259,12.926,2.554,19.431,3.56,2.449.379,3.669,1.322,4.221,3.748.856,3.757,2.034,7.441,3.1,11.15.3,1.028.058,2.45,1.426,2.809,1.492.392,1.7-1.157,2.31-1.946,2.517-3.235,5.032-6.478,7.375-9.838a3.609,3.609,0,0,1,4.3-1.734c6.579,1.373,13.215,2.468,19.818,3.728a5.842,5.842,0,0,0,3.989-.167c1.767-.689,2.2-2.265,2.5-3.878q4.363-23.469,8.68-46.946c.689-3.774-.407-5.357-4.147-6.054m2,5.971q-4.387,23.118-8.588,46.271c-.478,2.646-1.767,3.164-4.188,2.679-6.707-1.343-13.461-2.454-20.16-3.834-2.441-.5-4.068-.249-5.554,2.088-2.172,3.418-4.838,6.522-7.673,10.26-1.208-4.3-2.358-7.965-3.248-11.7-.639-2.676-1.762-4.2-4.806-4.634-6.656-.94-13.232-2.438-19.87-3.528-2.661-.437-3.6-1.468-3.07-4.254q4.351-22.918,8.452-45.884c.444-2.458,1.5-3.337,4.088-2.848q31,5.851,62.032,11.506c2.391.437,3.029,1.538,2.586,3.873" transform="translate(-17844.42 8347.886)" fill="#020225"/>
    <path id="Path_715" data-name="Path 715" d="M1253.974,652.415a18.105,18.105,0,0,1-2.348,5.547c-.269.37-.885.259-1.21-.278-.455-.752,1.221-5.615,2.119-6.054.684-.334,1.16-.119,1.439.785" transform="translate(-17975.453 8308.833)" fill="#101010"/>
    <path id="Path_716" data-name="Path 716" d="M1229.2,630.928c-1.718-.383-3.772,1.572-5.619-.144-.5-.464.359-1.1.945-1.166,1.948-.224,3.94-1.612,5.823-.079.37.3-.2,1.112-1.149,1.389" transform="translate(-17958.211 8323.348)" fill="#151515"/>
    <path id="Path_729" data-name="Path 729" d="M1135.942,650.6a77.532,77.532,0,0,0-7.7-1.386c-1.993-.247-2.393-1.057-1.912-2.949.7-2.768,1.163-5.605,1.613-8.431.431-2.7-.536-4.79-3.381-5.267-2.578-.431-4.551.91-4.847,3.491-.393,3.434-2.763,5.291-4.717,7.7-2.791,3.445-5.791,1.817-8.787,1.217-2.2-.44-3.148.128-3.516,2.414-.948,5.89-2,11.769-3.248,17.6-.535,2.492.268,3.216,2.609,3.619,9.08,1.563,18.127,3.316,27.184,5.009a5.96,5.96,0,0,0,3.321-.026c1.67-.648,2.22-1.863,2.611-3.649a103.547,103.547,0,0,1,3.719-13.24c1.168-3.215.494-5.321-2.947-6.107m-31.472,16.185c-1.779-.294-3.267-.255-2.6-3,1.133-4.684,1.775-9.486,2.647-14.235.151-.821.414-1.621.627-2.439a34.957,34.957,0,0,1,5.242.935c1.6.535.537,1.926.38,2.879-.765,4.641-1.842,9.238-2.406,13.9-.375,3.1-2.049,2.259-3.887,1.955m30.7-10.8c-1.446.339-2.1.873-.477,2.12,2.532,1.95,1.108,2.7-1.076,3.084-1.622.185-1.527,1.077-.617,1.9,2.081,1.871,2.34,2.969-.96,3.307-1.219.125-1.869.983-.546,1.959.855.632,1.76,1.206,1.178,2.355-.53,1.048-1.6.966-2.64.772-6.1-1.14-12.2-2.318-18.321-3.347-1.646-.277-1.631-1.1-1.4-2.337q1.532-8.236,3.005-16.484c.394-2.2,2.265-3.191,3.678-4.519,2.3-2.159,4.469-4.3,4.695-7.737.1-1.538,1.039-2.687,2.722-2.295,1.529.356,1.563,1.7,1.308,3.03-.633,3.3-1.17,6.618-1.9,9.9-.446,2.007.02,2.99,2.2,3.279,2.956.392,5.87,1.088,8.806,1.635,1.114.208,2.371.3,2.414,1.795.039,1.353-1.089,1.362-2.074,1.593" transform="translate(-17878.666 8321.005)" fill="#030326"/>
  </g>
</svg>
