<svg xmlns="http://www.w3.org/2000/svg" width="66.948" height="66.998" viewBox="0 0 66.948 66.998">
  <g id="Andriod_IOS" data-name="Andriod &amp; IOS" transform="translate(-1 -0.978)">
    <path id="Path_416" data-name="Path 416" d="M21.084,16.872a8.926,8.926,0,1,0-11.158,0A11.158,11.158,0,0,0,1,27.807V32.27A2.232,2.232,0,0,0,3.232,34.5H27.779a2.232,2.232,0,0,0,2.232-2.232V27.807a11.159,11.159,0,0,0-8.929-10.935ZM15.505,5.491a4.463,4.463,0,1,1-4.463,4.463,4.463,4.463,0,0,1,4.463-4.463ZM25.547,30.038H5.463V27.807a6.7,6.7,0,0,1,6.695-6.695h6.695a6.7,6.7,0,0,1,6.695,6.695ZM59.021,50.346a8.926,8.926,0,1,0-11.158,0,11.158,11.158,0,0,0-8.926,10.935v4.463a2.232,2.232,0,0,0,2.232,2.232H65.716a2.232,2.232,0,0,0,2.232-2.232V61.281a11.159,11.159,0,0,0-8.929-10.935ZM53.442,38.965a4.463,4.463,0,1,1-4.463,4.463A4.463,4.463,0,0,1,53.442,38.965ZM63.485,63.512H43.4V61.281A6.7,6.7,0,0,1,50.1,54.586H56.79a6.7,6.7,0,0,1,6.695,6.695Z" transform="translate(0)" fill="#b2b2b2"/>
    <path id="Path_417" data-name="Path 417" d="M27.316,54.095H16.158A11.158,11.158,0,0,1,5,42.937V36.242a2.232,2.232,0,0,1,4.463,0v6.695a6.7,6.7,0,0,0,6.695,6.695H27.316a2.232,2.232,0,1,1,0,4.463ZM49.632,22.853A2.232,2.232,0,0,1,47.4,20.621V16.158a6.7,6.7,0,0,0-6.695-6.695H29.547a2.232,2.232,0,0,1,0-4.463H40.705A11.158,11.158,0,0,1,51.863,16.158v4.463A2.232,2.232,0,0,1,49.632,22.853Z" transform="translate(4.926 4.954)" fill="#29efad"/>
  </g>
</svg>
