<svg xmlns="http://www.w3.org/2000/svg" width="54.697" height="63.863" viewBox="0 0 54.697 63.863">
  <g id="App_UI_Style_Guide" data-name="App UI Style Guide" transform="translate(0)">
    <path id="Path_424" data-name="Path 424" d="M12.509,5.56A6.843,6.843,0,0,1,18.96,1H32.64A6.842,6.842,0,0,1,39.09,5.56H41.76A6.84,6.84,0,0,1,48.6,12.4V29.347l-.593-1.381a6.839,6.839,0,0,0-3.967-3.739V12.4a2.28,2.28,0,0,0-2.28-2.28H39.09a6.842,6.842,0,0,1-6.451,4.56H18.96a6.843,6.843,0,0,1-6.451-4.56H9.84A2.28,2.28,0,0,0,7.56,12.4V58a2.28,2.28,0,0,0,2.28,2.28H21.618a6.813,6.813,0,0,0-.016,4.56H9.84A6.84,6.84,0,0,1,3,58V12.4A6.84,6.84,0,0,1,9.84,5.56Zm6.451,0a2.28,2.28,0,1,0,0,4.56H32.64a2.28,2.28,0,0,0,0-4.56Z" transform="translate(-3 -1)" fill="#b2b2b2"/>
    <path id="Path_425" data-name="Path 425" d="M26.033,8.386a2.28,2.28,0,0,0-4.192,0L12.2,30.927a2.259,2.259,0,0,0-.21.49L8.18,40.307A2.28,2.28,0,0,0,12.372,42.1l3.321-7.76H32.207l3.33,7.762a2.28,2.28,0,1,0,4.191-1.8l-3.814-8.891a2.27,2.27,0,0,0-.21-.49Zm4.217,21.4H17.645l6.3-14.708Z" transform="translate(14.784 20.378)" fill="#29efad"/>
  </g>
</svg>
