<svg xmlns="http://www.w3.org/2000/svg" xmlns:xlink="http://www.w3.org/1999/xlink" width="65" height="60" viewBox="0 0 65 60">
  <defs>
    <clipPath id="clip-path">
      <rect id="Rectangle_234" data-name="Rectangle 234" width="32.036" height="32.027" fill="#fff"/>
    </clipPath>
  </defs>
  <g id="Call" transform="translate(-760 -2709)">
    <rect id="Rectangle_279" data-name="Rectangle 279" width="65" height="60" rx="5" transform="translate(760 2709)" fill="#54d1fc"/>
    <g id="Group_137" data-name="Group 137" transform="translate(776.482 2724.973)">
      <g id="Group_132" data-name="Group 132" clip-path="url(#clip-path)">
        <path id="Path_80" data-name="Path 80" d="M0,2.194A2.919,2.919,0,0,1,.862.643,2.571,2.571,0,0,1,2.581.007C4.51,0,6.438,0,8.366.008a2.5,2.5,0,0,1,2.58,2.5,20.769,20.769,0,0,0,.912,5.716,2.641,2.641,0,0,1-.548,2.594c-.905,1.13-1.756,2.3-2.618,3.466a.371.371,0,0,0,.005.321,20.07,20.07,0,0,0,8.255,8.464c.219.12.435.246.669.379.4-.3.8-.6,1.195-.9.887-.675,1.768-1.359,2.661-2.026a2.383,2.383,0,0,1,2.075-.4c.95.229,1.888.527,2.85.685a27.608,27.608,0,0,0,2.984.267,2.539,2.539,0,0,1,2.37,1.445,2.913,2.913,0,0,1,.263,1.173c.026,1.907.018,3.814.01,5.721a2.519,2.519,0,0,1-2.077,2.563.616.616,0,0,0-.11.048H28.277c-.1-.015-.2-.034-.306-.045-1.169-.132-2.346-.211-3.505-.4A28.444,28.444,0,0,1,14.127,27.69a29.4,29.4,0,0,1-9.673-9.6A29.046,29.046,0,0,1,.189,5.806C.112,5.125.062,4.44,0,3.758Z" transform="translate(0 -0.001)" fill="#fff"/>
      </g>
    </g>
  </g>
</svg>
