<svg xmlns="http://www.w3.org/2000/svg" width="83.879" height="83.879" viewBox="0 0 83.879 83.879">
  <g id="Engaging_User" data-name="Engaging User" transform="translate(-1 -0.999)">
    <path id="Path_412" data-name="Path 412" d="M49.429,1364.856l-19.572,16.776,1.823,2.125,19.572-16.776Zm-17.458,28.3-2.4,1.437,16.776,27.96,2.4-1.437Zm54.275,21.764-29.358,9.786.884,2.648,29.358-9.786Zm-17.531-57.655-.4,2.768,20.97,3.076.4-2.768Zm29.022,13.941a1.4,1.4,0,0,0-1.345,1.311l-.612,7.971a1.4,1.4,0,1,0,2.785.213l.615-7.971a1.4,1.4,0,0,0-1.446-1.524Zm-1.32,17.061a1.4,1.4,0,0,0-1.336,1.309l-.7,9.087-.7,9.087a1.4,1.4,0,1,0,2.785.213l.7-9.087.7-9.087a1.4,1.4,0,0,0-1.448-1.524Z" transform="translate(-18.585 -1348.141)" fill="#767676" fill-rule="evenodd"/>
    <path id="Path_413" data-name="Path 413" d="M55.99,1374.361a6.99,6.99,0,1,0,6.99,6.99A7.013,7.013,0,0,0,55.99,1374.361Zm0,2.8a4.194,4.194,0,1,1-4.194,4.194A4.174,4.174,0,0,1,55.99,1377.157Z" transform="translate(16.307 -1317.443)" fill="#29efad"/>
    <path id="Path_414" data-name="Path 414" d="M88.806,1362.008,69.235,1381.58l1.98,1.977,19.572-19.572ZM70.946,1389.76l-1.443,2.4,13.98,8.388,1.443-2.4Zm-39.739-8.583-.252,2.782,30.756,2.8.252-2.785-30.756-2.8Z" transform="translate(-16.101 -1339.628)" fill="#767676" fill-rule="evenodd"/>
    <path id="Path_415" data-name="Path 415" d="M74.929,1393.5a6.99,6.99,0,1,0,6.99,6.99A7.013,7.013,0,0,0,74.929,1393.5Zm0,2.8a4.194,4.194,0,1,1-4.194,4.194A4.174,4.174,0,0,1,74.929,1396.3Zm-9.786-41.939a11.184,11.184,0,1,0,11.184,11.184A11.206,11.206,0,0,0,65.143,1354.361Zm0,2.8a8.388,8.388,0,1,1-8.388,8.388A8.368,8.368,0,0,1,65.143,1357.157Zm-6.99,67.1a6.99,6.99,0,1,0,6.99,6.99A7.013,7.013,0,0,0,58.154,1424.26Zm0,2.8a4.194,4.194,0,1,1-4.194,4.194A4.174,4.174,0,0,1,58.154,1427.056Zm43.337-64.307a8.388,8.388,0,1,0,8.388,8.388A8.412,8.412,0,0,0,101.491,1362.749Zm0,2.8a5.592,5.592,0,1,1-5.592,5.592A5.573,5.573,0,0,1,101.491,1365.545Zm-67.1,19.572a8.388,8.388,0,1,0,8.388,8.388A8.412,8.412,0,0,0,34.388,1385.117Zm0,2.8A5.592,5.592,0,1,1,28.8,1393.5,5.573,5.573,0,0,1,34.388,1387.912Z" transform="translate(-25 -1353.362)" fill="#29efad"/>
  </g>
</svg>
