<svg xmlns="http://www.w3.org/2000/svg" xmlns:xlink="http://www.w3.org/1999/xlink" width="65" height="60" viewBox="0 0 65 60">
  <defs>
    <clipPath id="clip-path">
      <rect id="Rectangle_235" data-name="Rectangle 235" width="45.537" height="32.026" fill="#fff"/>
    </clipPath>
  </defs>
  <g id="Message" transform="translate(-265 -2709)">
    <rect id="Rectangle_278" data-name="Rectangle 278" width="65" height="60" rx="5" transform="translate(265 2709)" fill="#54d1fc"/>
    <g id="Group_138" data-name="Group 138" transform="translate(274.731 2722.986)">
      <g id="Group_134" data-name="Group 134" clip-path="url(#clip-path)">
        <path id="Path_81" data-name="Path 81" d="M278.517,46.426l-.37,1.131L264.393,33.924l13.778-13.64.346,1.062Z" transform="translate(-232.98 -17.874)" fill="#fff"/>
        <path id="Path_82" data-name="Path 82" d="M19.409.327c.539-.117.993-.222,1.45-.31A2.376,2.376,0,0,1,21.3.005q18.561,0,37.122.01a13.685,13.685,0,0,1,1.817.239l.02.161c-.107.112-.213.226-.322.336L41.17,19.58a1.6,1.6,0,0,1-2.578.014L19.791.734c-.1-.1-.2-.212-.382-.407" transform="translate(-17.103 -0.001)" fill="#fff"/>
        <path id="Path_83" data-name="Path 83" d="M33.788,151.478c1.149,1.142,2.374,2.364,3.6,3.582A4.039,4.039,0,0,0,41.8,156.1,5,5,0,0,0,43.5,155.01c1.14-1.057,2.209-2.19,3.308-3.292.113-.113.23-.221.291-.279l13.821,13.692c-.55.124-.994.236-1.443.32a3.158,3.158,0,0,1-.577.015q-18.469,0-36.937,0a4.078,4.078,0,0,1-1.917-.38l13.746-13.611" transform="translate(-17.661 -133.446)" fill="#fff"/>
        <path id="Path_84" data-name="Path 84" d="M.36,47.053A3.707,3.707,0,0,1,0,45.333q0-5.978,0-11.957,0-5.912,0-11.823A3.948,3.948,0,0,1,.387,19.8L14.125,33.418.36,47.053" transform="translate(0 -17.449)" fill="#fff"/>
      </g>
    </g>
  </g>
</svg>
