<svg xmlns="http://www.w3.org/2000/svg" width="62.983" height="62.983" viewBox="0 0 62.983 62.983">
  <g id="On_brand" data-name="On brand" transform="translate(-4 -4)">
    <path id="Path_410" data-name="Path 410" d="M24.994,38.116H11.873A7.873,7.873,0,0,0,4,45.989V59.11a7.873,7.873,0,0,0,7.873,7.873H24.994a7.873,7.873,0,0,0,7.873-7.873V45.989A7.873,7.873,0,0,0,24.994,38.116ZM27.619,59.11a2.624,2.624,0,0,1-2.624,2.624H11.873A2.624,2.624,0,0,1,9.249,59.11V45.989a2.624,2.624,0,0,1,2.624-2.624H24.994a2.624,2.624,0,0,1,2.624,2.624ZM59.11,38.116H45.989a7.873,7.873,0,0,0-7.873,7.873V59.11a7.873,7.873,0,0,0,7.873,7.873H59.11a7.873,7.873,0,0,0,7.873-7.873V45.989a7.873,7.873,0,0,0-7.873-7.873ZM61.735,59.11a2.624,2.624,0,0,1-2.624,2.624H45.989a2.624,2.624,0,0,1-2.624-2.624V45.989a2.624,2.624,0,0,1,2.624-2.624H59.11a2.624,2.624,0,0,1,2.624,2.624ZM24.994,4H11.873A7.873,7.873,0,0,0,4,11.873V24.994a7.873,7.873,0,0,0,7.873,7.873H24.994a7.873,7.873,0,0,0,7.873-7.873V11.873A7.873,7.873,0,0,0,24.994,4Zm2.624,20.994a2.624,2.624,0,0,1-2.624,2.624H11.873a2.624,2.624,0,0,1-2.624-2.624V11.873a2.624,2.624,0,0,1,2.624-2.624H24.994a2.624,2.624,0,0,1,2.624,2.624Z" fill="#767676"/>
    <path id="Path_411" data-name="Path 411" d="M43.243,15.809H34.058V6.624a2.624,2.624,0,0,0-5.249,0v9.185H19.624a2.624,2.624,0,1,0,0,5.249h9.185v9.185a2.624,2.624,0,1,0,5.249,0V21.058h9.185a2.624,2.624,0,1,0,0-5.249Z" transform="translate(21.116)" fill="#29efad"/>
  </g>
</svg>
